<svg width="480" height="481" viewBox="0 0 480 481" fill="none" xmlns="http://www.w3.org/2000/svg">
<g clip-path="url(#clip0_1203_210)">
<path d="M306.398 430.354L306.398 519.637C306.398 526.38 300.931 531.846 294.188 531.846L275.398 531.846C268.655 531.846 263.189 526.38 263.189 519.637L263.189 430.354L306.398 430.354Z" fill="#FF6100"/>
<path d="M306.398 430.354L306.398 519.637C306.398 526.38 300.931 531.846 294.188 531.846L291.997 531.846L291.997 430.354L306.398 430.354Z" fill="#FFCC00"/>
<path d="M291.998 430.354L291.998 531.846L277.597 531.846L277.597 430.354L291.998 430.354Z" fill="#FFA200"/>
<path d="M306.398 430.354L286.652 400.135C285.776 398.794 283.811 398.794 282.935 400.135L263.189 430.354L306.398 430.354Z" fill="#E3DEDA"/>
<path d="M296.297 414.892L286.652 400.132C285.776 398.791 283.812 398.791 282.936 400.132L273.291 414.892L296.297 414.892Z" fill="#6822BC"/>
<mask id="mask0_1203_210" style="mask-type:alpha" maskUnits="userSpaceOnUse" x="134" y="224" width="277" height="178">
<path d="M398.891 225.063C402.444 224.111 406.113 226.22 406.899 229.813C422.921 303.048 378.65 376.661 305.485 396.266C232.319 415.871 157.173 374.255 134.431 302.821C133.316 299.316 135.438 295.655 138.991 294.703L398.891 225.063Z" fill="#006CE0"/>
</mask>
<g mask="url(#mask0_1203_210)">
<path d="M398.891 225.063C402.444 224.111 406.113 226.22 406.899 229.813C422.921 303.048 378.65 376.661 305.485 396.266C232.319 415.871 157.173 374.255 134.431 302.821C133.316 299.316 135.438 295.655 138.991 294.703L398.891 225.063Z" fill="#FF8400"/>
<ellipse cx="264.992" cy="263.524" rx="154.851" ry="19.7198" transform="rotate(-18.6046 264.992 263.524)" fill="#FF6100"/>
</g>
<g filter="url(#filter0_i_1203_210)">
<path d="M220.232 103.765C232.887 125.723 229.033 152.669 212.532 170.233C211.714 171.103 212.704 172.82 213.867 172.548C237.337 167.077 262.584 177.251 275.239 199.21L286.71 219.114C289.039 223.155 287.651 228.318 283.61 230.647L200.958 278.28C196.918 280.608 191.754 279.221 189.426 275.18L177.955 255.276C165.3 233.317 169.154 206.372 185.655 188.808C186.473 187.937 185.483 186.221 184.32 186.492C160.85 191.964 135.603 181.789 122.948 159.83L111.477 139.926C109.149 135.886 110.537 130.723 114.577 128.394L197.229 80.7609C201.269 78.4323 206.433 79.8201 208.761 83.8607L220.232 103.765Z" fill="#7E24C4"/>
</g>
<g filter="url(#filter1_i_1203_210)">
<rect x="226.216" y="191.085" width="176.406" height="29.0472" rx="5.97412" transform="rotate(-15 226.216 191.085)" fill="#FFCC00"/>
</g>
<g filter="url(#filter2_i_1203_210)">
<ellipse cx="225.823" cy="129.908" rx="28.7318" ry="36.0139" transform="rotate(-49.8303 225.823 129.908)" fill="#FE3F00"/>
</g>
<ellipse cx="28.7318" cy="36.0139" rx="28.7318" ry="36.0139" transform="matrix(-0.831103 0.556119 0.556119 0.831103 248.228 67.4053)" fill="#FE3F00"/>
<path d="M214.444 98.1411C212.405 92.2871 198.374 84.3989 189.88 90.9492C189.448 91.2827 189.368 91.8941 189.691 92.3344C193.398 97.3856 202.528 104.703 213.919 99.2765C214.352 99.0701 214.601 98.5943 214.444 98.1411Z" fill="#009600"/>
<path d="M386.366 54.9544C385.732 55.3926 384.949 55.5609 384.191 55.4223C383.433 55.2836 382.76 54.8495 382.322 54.2152L382.288 54.1662C382.071 53.8521 381.918 53.4984 381.838 53.1253C381.758 52.7521 381.752 52.3667 381.821 51.9913C381.889 51.6158 382.031 51.2575 382.238 50.9368C382.445 50.6162 382.714 50.3395 383.028 50.1225L404.985 34.9838C405.619 34.5456 406.401 34.3773 407.16 34.5159C407.918 34.6546 408.59 35.0888 409.028 35.723L409.062 35.772C409.279 36.0861 409.432 36.4398 409.512 36.813C409.593 37.1861 409.599 37.5715 409.53 37.947C409.461 38.3224 409.319 38.6807 409.112 39.0014C408.905 39.322 408.637 39.5987 408.323 39.8157L386.366 54.9544Z" fill="#F8F6EE"/>
<path d="M386.29 98.2407C385.539 98.0642 384.89 97.5969 384.484 96.9414C384.078 96.286 383.949 95.4962 384.126 94.7458L384.14 94.6878C384.227 94.3162 384.387 93.9655 384.61 93.6557C384.832 93.3458 385.114 93.0829 385.439 92.882C385.763 92.681 386.124 92.546 386.501 92.4845C386.878 92.4231 387.263 92.4364 387.634 92.5238L413.59 98.6549C414.341 98.8314 414.99 99.2988 415.396 99.9542C415.802 100.61 415.931 101.399 415.754 102.15L415.741 102.208C415.653 102.579 415.494 102.93 415.271 103.24C415.048 103.55 414.766 103.813 414.441 104.014C414.117 104.215 413.756 104.35 413.379 104.411C413.002 104.473 412.617 104.459 412.246 104.372L386.29 98.2407Z" fill="#F8F6EE"/>
<path d="M391.759 75.6886C390.991 75.7611 390.226 75.5257 389.632 75.0343C389.038 74.5429 388.664 73.8356 388.591 73.0681L388.586 73.0088C388.55 72.6288 388.589 72.2454 388.702 71.8806C388.814 71.5158 388.997 71.1766 389.24 70.8825C389.483 70.5884 389.782 70.3452 390.12 70.1666C390.457 69.988 390.826 69.8776 391.206 69.8417L417.761 67.3596C418.528 67.2871 419.293 67.5224 419.887 68.0139C420.481 68.5053 420.855 69.2125 420.928 69.98L420.933 70.0393C420.969 70.4193 420.93 70.8027 420.818 71.1675C420.705 71.5324 420.522 71.8715 420.279 72.1656C420.036 72.4597 419.737 72.703 419.399 72.8816C419.062 73.0602 418.693 73.1706 418.313 73.2064L391.759 75.6886Z" fill="#F8F6EE"/>
<g filter="url(#filter3_i_1203_210)">
<path d="M298.196 38.6732L302 38.7171C306.565 38.7699 311.043 37.5247 314.87 35.1264L324.249 29.2474C332.816 23.8831 344.325 28.1879 346.901 37.723C353.647 62.6384 353.343 88.9376 346.023 113.691C343.228 123.164 331.622 127.201 323.181 121.64L313.941 115.546C310.139 113.053 305.703 111.702 301.157 111.654L297.353 111.61C276.465 111.368 259.72 94.8443 259.953 74.707C260.185 54.5696 277.308 38.4318 298.196 38.6732Z" fill="#FF25A2"/>
</g>
<path d="M349.05 101.443C354.495 99.7401 359.263 96.3577 362.668 91.7799C366.074 87.2022 367.944 81.6641 368.01 75.9587C368.076 70.2534 366.335 64.6735 363.035 60.0183C359.736 55.3631 355.049 51.8713 349.644 50.0432C352.635 67.0728 352.434 84.4816 349.05 101.443Z" fill="#D3007C"/>
<g filter="url(#filter4_i_1203_210)">
<path d="M381.285 111.877C383.601 111.256 385.983 112.631 386.603 114.947C387.224 117.264 385.849 119.645 383.533 120.266L340.512 131.793C338.124 132.433 336.707 134.888 337.346 137.276L339.946 146.979C340.586 149.367 343.041 150.784 345.429 150.145L381.816 140.395L381.817 140.397L388.451 138.62C390.767 137.999 393.148 139.374 393.769 141.69C394.39 144.007 393.015 146.388 390.699 147.009L358.376 155.67C358.322 155.684 358.267 155.696 358.213 155.709L266.634 180.247C263.081 181.199 259.43 179.091 258.478 175.538L252.868 154.602C251.72 150.317 254.263 145.912 258.547 144.764L381.285 111.877Z" fill="#FFA200"/>
</g>
<path d="M337.049 136.169C336.573 134.392 337.628 132.567 339.404 132.091L376.898 122.044L381.815 140.395L344.321 150.442C342.545 150.918 340.719 149.864 340.243 148.087L337.049 136.169Z" fill="#FFBC00"/>
<g filter="url(#filter5_i_1203_210)">
<path d="M444.79 162.588C447.106 161.968 449.488 163.342 450.108 165.659C450.729 167.975 449.354 170.356 447.038 170.977L404.017 182.504C401.629 183.144 400.211 185.599 400.851 187.987L403.451 197.69C404.091 200.078 406.546 201.496 408.934 200.856L445.321 191.106L448.453 202.792L455.086 201.015C457.403 200.394 459.784 201.769 460.405 204.085C461.025 206.402 459.65 208.783 457.334 209.404L425.012 218.065C424.958 218.079 424.903 218.091 424.849 218.104L264.921 260.956C261.96 261.75 258.917 259.993 258.124 257.032L249.096 223.339C247.948 219.055 250.49 214.651 254.774 213.503L444.79 162.588Z" fill="#FDE600"/>
</g>
<path d="M324.46 207.27C323.984 205.494 325.039 203.668 326.815 203.192L441.035 172.587L449.07 202.576L334.85 233.181C333.074 233.657 331.248 232.603 330.772 230.826L324.46 207.27Z" fill="#FFBC00"/>
<path d="M61.5671 275.66L62.83 275.342C64.1465 277.524 66.4619 279.391 69.1403 279.024C70.0483 278.9 70.9542 278.676 71.858 278.353C80.1185 275.392 87.8485 270.666 94.7284 265.107C98.0273 262.442 101.798 259.232 106.041 255.477C108.909 252.937 111.539 250.236 113.93 247.373C116.711 244.041 119.325 240.586 121.769 237.008C124.162 233.504 126.052 229.785 127.442 225.85C127.826 224.763 128.074 223.64 128.187 222.48C128.194 222.413 128.19 222.346 128.174 222.28C128.001 221.521 128.025 220.789 128.245 220.085C134.094 226.765 139.677 233.643 144.994 240.72C145.002 240.73 145.012 240.738 145.024 240.743C145.036 240.747 145.049 240.749 145.061 240.747C145.074 240.746 145.086 240.741 145.096 240.733C145.106 240.725 145.113 240.715 145.118 240.704C146.619 236.988 148.29 232.879 150.131 228.376C151.092 226.026 151.394 223.035 151.006 220.472C150.494 217.08 148.261 213.855 145.451 212.068C141.652 209.653 136.945 209.884 133.139 212.26C132.641 212.57 132.109 213.044 131.542 213.679C130.044 215.36 128.589 217.088 127.178 218.861C125.931 217.841 124.875 216.793 123.241 216.496C121.276 216.138 119.332 216.106 117.409 216.399C117.146 216.439 114.801 218.424 114.427 218.302C114.4 218.293 114.377 218.274 114.362 218.25C114.346 218.226 114.339 218.198 114.342 218.17C114.352 218.076 114.324 218.058 114.258 218.114C119.987 210.483 126.704 200.997 136.955 199.957C143.66 199.28 149.423 201.105 154.243 205.433C160.741 211.267 163.234 220.52 161.224 228.985C160.894 230.374 160.007 232.782 158.562 236.209C155.774 242.826 153.563 248.085 151.93 251.985C151.866 252.139 151.856 252.308 151.901 252.466C154.023 259.895 154.303 267.899 152.293 275.353C151.342 278.881 150.114 282.123 148.284 285.392C147.013 287.66 145.526 289.818 143.824 291.865C136.063 301.195 125.104 308.093 112.826 309.145C107.414 309.609 102.111 308.978 96.9178 307.253C92.4275 305.761 88.3603 303.745 84.6376 300.802C80.018 297.155 75.7616 293.004 71.8684 288.347C68.3658 284.158 64.9321 279.929 61.5671 275.66Z" fill="#0091FF"/>
<mask id="mask1_1203_210" style="mask-type:alpha" maskUnits="userSpaceOnUse" x="61" y="199" width="101" height="111">
<path d="M61.5671 275.66L62.83 275.342C64.1465 277.524 66.4619 279.391 69.1403 279.024C70.0483 278.9 70.9542 278.676 71.858 278.353C80.1185 275.392 87.8485 270.666 94.7284 265.107C98.0273 262.442 101.798 259.232 106.041 255.477C108.909 252.937 111.539 250.236 113.93 247.373C116.711 244.041 119.325 240.586 121.769 237.008C124.162 233.504 126.052 229.785 127.442 225.85C127.826 224.763 128.074 223.64 128.187 222.48C128.194 222.413 128.19 222.346 128.174 222.28C128.001 221.521 128.025 220.789 128.245 220.085C134.094 226.765 139.677 233.643 144.994 240.72C145.002 240.73 145.012 240.738 145.024 240.743C145.036 240.747 145.049 240.749 145.061 240.747C145.074 240.746 145.086 240.741 145.096 240.733C145.106 240.725 145.113 240.715 145.118 240.704C146.619 236.988 148.29 232.879 150.131 228.376C151.092 226.026 151.394 223.035 151.006 220.472C150.494 217.08 148.261 213.855 145.451 212.068C141.652 209.653 136.945 209.884 133.139 212.26C132.641 212.57 132.109 213.044 131.542 213.679C130.044 215.36 128.589 217.088 127.178 218.861C125.931 217.841 124.875 216.793 123.241 216.496C121.276 216.138 119.332 216.106 117.409 216.399C117.146 216.439 114.801 218.424 114.427 218.302C114.4 218.293 114.377 218.274 114.362 218.25C114.346 218.226 114.339 218.198 114.342 218.17C114.352 218.076 114.324 218.058 114.258 218.114C119.987 210.483 126.704 200.997 136.955 199.957C143.66 199.28 149.423 201.105 154.243 205.433C160.741 211.267 163.234 220.52 161.224 228.985C160.894 230.374 160.007 232.782 158.562 236.209C155.774 242.826 153.563 248.085 151.93 251.985C151.866 252.139 151.856 252.308 151.901 252.466C154.023 259.895 154.303 267.899 152.293 275.353C151.342 278.881 150.114 282.123 148.284 285.392C147.013 287.66 145.526 289.818 143.824 291.865C136.063 301.195 125.104 308.093 112.826 309.145C107.414 309.609 102.111 308.978 96.9178 307.253C92.4275 305.761 88.3603 303.745 84.6376 300.802C80.018 297.155 75.7616 293.004 71.8684 288.347C68.3658 284.158 64.9321 279.929 61.5671 275.66Z" fill="#0091FF"/>
</mask>
<g mask="url(#mask1_1203_210)">
<path d="M142.782 303.249C98.3856 306.594 88.3508 279.53 71.3222 261.894L41.5219 267.367L57.9425 303.249L106.9 322.71C119.976 322.102 145.458 317.358 142.782 303.249Z" fill="#006CE0"/>
</g>
<path d="M117.408 216.4C119.332 216.107 121.276 216.139 123.241 216.497C124.875 216.794 125.932 217.843 127.178 218.862L128.245 220.086C128.024 220.79 128.001 221.522 128.174 222.282C128.189 222.347 128.193 222.415 128.186 222.482C128.073 223.641 127.826 224.764 127.442 225.851C126.053 229.785 124.161 233.505 121.769 237.008C119.325 240.587 116.711 244.043 113.929 247.375C111.538 250.237 108.908 252.938 106.04 255.478C101.797 259.233 98.0269 262.444 94.728 265.108C87.8482 270.668 80.118 275.393 71.8576 278.354C70.954 278.677 70.0482 278.901 69.1405 279.025C41.4905 277.003 98.8293 219.219 117.408 216.4Z" fill="#054BC1"/>
<path d="M107.66 254.036C107.624 254.071 107.6 254.104 107.588 254.135C107.563 254.197 107.545 254.234 107.534 254.245C105.907 255.869 104.292 257.385 102.689 258.791C98.0914 262.824 93.143 266.663 87.8438 270.307C83.6768 273.174 79.6748 275.483 75.838 277.233C73.0041 278.526 69.8372 279.434 66.3374 279.956C65.8931 280.022 65.3393 280.171 64.6763 280.402L63.4134 280.72C62.6526 281.076 61.9661 281.406 61.3539 281.71C59.571 282.595 58.0488 283.714 56.7873 285.068C55.3593 286.602 54.1714 288.3 53.2235 290.163C51.9262 292.715 51.1056 294.51 50.7617 295.549C49.1645 300.355 48.0873 304.994 43.7539 307.905C40.4687 310.115 36.1786 310.693 32.5859 309.168C26.9958 306.795 24.5917 300.604 25.4997 294.888C25.8505 292.678 26.4379 290.584 27.262 288.609C29.1935 283.977 31.797 279.649 35.0725 275.625C45.5685 262.733 59.5208 261.188 74.7939 259.096C85.8203 258.013 96.7298 255.804 107.66 254.036Z" fill="#EA5D01"/>
<path d="M22.8563 336.285C17.8522 334.808 17.1836 328.634 18.7498 324.335C19.8022 321.45 21.438 319.024 23.657 317.057C26.1167 314.876 29.8435 314.408 32.5096 316.403C34.1997 317.668 34.7321 319.492 34.7878 321.665C34.8359 323.581 34.6179 325.472 34.1336 327.338C33.6363 329.247 32.9017 331.271 31.7564 332.872C29.7775 335.641 26.2426 337.284 22.8563 336.285Z" fill="#EA5D01"/>
</g>
<defs>
<filter id="filter0_i_1203_210" x="110.348" y="79.6316" width="177.491" height="199.778" filterUnits="userSpaceOnUse" color-interpolation-filters="sRGB">
<feFlood flood-opacity="0" result="BackgroundImageFix"/>
<feBlend mode="normal" in="SourceGraphic" in2="BackgroundImageFix" result="shape"/>
<feColorMatrix in="SourceAlpha" type="matrix" values="0 0 0 0 0 0 0 0 0 0 0 0 0 0 0 0 0 0 127 0" result="hardAlpha"/>
<feOffset dx="15.1" dy="-1.67"/>
<feComposite in2="hardAlpha" operator="arithmetic" k2="-1" k3="1"/>
<feColorMatrix type="matrix" values="0 0 0 0 0.407843 0 0 0 0 0.133333 0 0 0 0 0.737255 0 0 0 1 0"/>
<feBlend mode="normal" in2="shape" result="effect1_innerShadow_1203_210"/>
</filter>
<filter id="filter1_i_1203_210" x="227.558" y="146.769" width="175.23" height="71.0322" filterUnits="userSpaceOnUse" color-interpolation-filters="sRGB">
<feFlood flood-opacity="0" result="BackgroundImageFix"/>
<feBlend mode="normal" in="SourceGraphic" in2="BackgroundImageFix" result="shape"/>
<feColorMatrix in="SourceAlpha" type="matrix" values="0 0 0 0 0 0 0 0 0 0 0 0 0 0 0 0 0 0 127 0" result="hardAlpha"/>
<feOffset dx="11.0994" dy="-3"/>
<feComposite in2="hardAlpha" operator="arithmetic" k2="-1" k3="1"/>
<feColorMatrix type="matrix" values="0 0 0 0 1 0 0 0 0 0.635294 0 0 0 0 0 0 0 0 1 0"/>
<feBlend mode="normal" in2="shape" result="effect1_innerShadow_1203_210"/>
</filter>
<filter id="filter2_i_1203_210" x="192.641" y="97.9436" width="66.364" height="63.9282" filterUnits="userSpaceOnUse" color-interpolation-filters="sRGB">
<feFlood flood-opacity="0" result="BackgroundImageFix"/>
<feBlend mode="normal" in="SourceGraphic" in2="BackgroundImageFix" result="shape"/>
<feColorMatrix in="SourceAlpha" type="matrix" values="0 0 0 0 0 0 0 0 0 0 0 0 0 0 0 0 0 0 127 0" result="hardAlpha"/>
<feOffset dx="11.0994" dy="3.32982"/>
<feComposite in2="hardAlpha" operator="arithmetic" k2="-1" k3="1"/>
<feColorMatrix type="matrix" values="0 0 0 0 0.866667 0 0 0 0 0 0 0 0 0 0.0588235 0 0 0 1 0"/>
<feBlend mode="normal" in2="shape" result="effect1_innerShadow_1203_210"/>
</filter>
<filter id="filter3_i_1203_210" x="259.95" y="26.9102" width="91.7954" height="97.2585" filterUnits="userSpaceOnUse" color-interpolation-filters="sRGB">
<feFlood flood-opacity="0" result="BackgroundImageFix"/>
<feBlend mode="normal" in="SourceGraphic" in2="BackgroundImageFix" result="shape"/>
<feColorMatrix in="SourceAlpha" type="matrix" values="0 0 0 0 0 0 0 0 0 0 0 0 0 0 0 0 0 0 127 0" result="hardAlpha"/>
<feOffset dx="11.0994" dy="6.33"/>
<feComposite in2="hardAlpha" operator="arithmetic" k2="-1" k3="1"/>
<feColorMatrix type="matrix" values="0 0 0 0 0.827451 0 0 0 0 0 0 0 0 0 0.486275 0 0 0 1 0"/>
<feBlend mode="normal" in2="shape" result="effect1_innerShadow_1203_210"/>
</filter>
<filter id="filter4_i_1203_210" x="252.592" y="111.728" width="141.326" height="68.7478" filterUnits="userSpaceOnUse" color-interpolation-filters="sRGB">
<feFlood flood-opacity="0" result="BackgroundImageFix"/>
<feBlend mode="normal" in="SourceGraphic" in2="BackgroundImageFix" result="shape"/>
<feColorMatrix in="SourceAlpha" type="matrix" values="0 0 0 0 0 0 0 0 0 0 0 0 0 0 0 0 0 0 127 0" result="hardAlpha"/>
<feOffset dx="11.0994" dy="-3"/>
<feComposite in2="hardAlpha" operator="arithmetic" k2="-1" k3="1"/>
<feColorMatrix type="matrix" values="0 0 0 0 1 0 0 0 0 0.380392 0 0 0 0 0 0 0 0 1 0"/>
<feBlend mode="normal" in2="shape" result="effect1_innerShadow_1203_210"/>
</filter>
<filter id="filter5_i_1203_210" x="248.82" y="162.439" width="211.733" height="98.7078" filterUnits="userSpaceOnUse" color-interpolation-filters="sRGB">
<feFlood flood-opacity="0" result="BackgroundImageFix"/>
<feBlend mode="normal" in="SourceGraphic" in2="BackgroundImageFix" result="shape"/>
<feColorMatrix in="SourceAlpha" type="matrix" values="0 0 0 0 0 0 0 0 0 0 0 0 0 0 0 0 0 0 127 0" result="hardAlpha"/>
<feOffset dx="11.0994" dy="-3"/>
<feComposite in2="hardAlpha" operator="arithmetic" k2="-1" k3="1"/>
<feColorMatrix type="matrix" values="0 0 0 0 1 0 0 0 0 0.843137 0 0 0 0 0 0 0 0 1 0"/>
<feBlend mode="normal" in2="shape" result="effect1_innerShadow_1203_210"/>
</filter>
<clipPath id="clip0_1203_210">
<rect width="480" height="480" fill="white" transform="translate(0 0.870117)"/>
</clipPath>
</defs>
</svg>
