<svg width="480" height="616" viewBox="0 0 480 616" fill="none" xmlns="http://www.w3.org/2000/svg">
<g clip-path="url(#clip0_1444_199)">
<ellipse cx="284.926" cy="574.859" rx="125.435" ry="9.59216" fill="#1F0243"/>
<path d="M279.189 574.859C270.353 574.859 263.189 567.695 263.189 558.859L263.189 430.663C270.158 432.145 277.386 432.927 284.797 432.927C292.205 432.927 299.431 432.145 306.397 430.664L306.397 558.859C306.397 567.695 299.234 574.859 290.397 574.859H279.189Z" fill="#FF6100"/>
<path d="M291.997 574.859L291.997 432.678C296.899 432.341 301.707 431.661 306.397 430.664L306.397 560.458C306.397 568.411 299.95 574.859 291.997 574.859V574.859Z" fill="#FFCC00"/>
<path d="M277.596 574.859L277.596 432.678C279.975 432.842 282.376 432.927 284.797 432.927C287.217 432.927 289.619 432.842 291.998 432.678L291.998 574.859H277.596Z" fill="#FFA200"/>
<path d="M306.37 430.67C299.412 432.147 292.195 432.927 284.797 432.927C277.396 432.927 270.177 432.146 263.217 430.668L263.189 430.597L272.393 416.511C276.445 417.084 280.586 417.381 284.797 417.381C289.005 417.381 293.144 417.084 297.194 416.512L306.397 430.597L306.37 430.67Z" fill="#D9D9D9"/>
<path d="M297.197 416.511C293.146 417.084 289.006 417.381 284.797 417.381C280.586 417.381 276.444 417.083 272.391 416.51L282.935 400.373C283.811 399.033 285.776 399.033 286.652 400.373L297.197 416.511Z" fill="#6822BC"/>
<mask id="mask0_1444_199" style="mask-type:alpha" maskUnits="userSpaceOnUse" x="134" y="225" width="277" height="177">
<path d="M398.891 225.305C402.444 224.353 406.113 226.463 406.899 230.056C422.921 303.29 378.65 376.903 305.485 396.508C232.319 416.113 157.173 374.498 134.431 303.063C133.315 299.558 135.438 295.897 138.991 294.945L398.891 225.305Z" fill="#006CE0"/>
</mask>
<g mask="url(#mask0_1444_199)">
<path d="M398.891 225.305C402.444 224.353 406.113 226.463 406.899 230.056C422.921 303.29 378.65 376.903 305.485 396.508C232.319 416.113 157.173 374.498 134.431 303.063C133.315 299.558 135.438 295.897 138.991 294.945L398.891 225.305Z" fill="#FF8400"/>
<ellipse cx="264.992" cy="263.766" rx="154.851" ry="19.7198" transform="rotate(-18.6046 264.992 263.766)" fill="#FF6100"/>
</g>
<g filter="url(#filter0_i_1444_199)">
<path d="M220.232 104.007C232.887 125.965 229.033 152.911 212.532 170.475C211.714 171.345 212.704 173.062 213.867 172.791C237.337 167.319 262.584 177.494 275.239 199.452L286.71 219.356C289.039 223.397 287.651 228.56 283.61 230.889L200.958 278.522C196.918 280.851 191.754 279.463 189.426 275.422L177.955 255.518C165.3 233.56 169.154 206.614 185.655 189.05C186.473 188.179 185.483 186.463 184.32 186.734C160.85 192.206 135.603 182.031 122.948 160.073L111.477 140.169C109.149 136.128 110.537 130.965 114.577 128.636L197.229 81.0031C201.269 78.6745 206.433 80.0623 208.761 84.1029L220.232 104.007Z" fill="#7E24C4"/>
</g>
<g filter="url(#filter1_i_1444_199)">
<rect x="226.216" y="191.327" width="176.406" height="29.0472" rx="5.97412" transform="rotate(-15 226.216 191.327)" fill="#FFCC00"/>
</g>
<g filter="url(#filter2_i_1444_199)">
<ellipse cx="225.823" cy="130.15" rx="28.7318" ry="36.0139" transform="rotate(-49.8303 225.823 130.15)" fill="#FE3F00"/>
</g>
<ellipse cx="28.7318" cy="36.0139" rx="28.7318" ry="36.0139" transform="matrix(-0.831103 0.556119 0.556119 0.831103 248.228 67.6475)" fill="#FE3F00"/>
<path d="M214.444 98.3833C212.406 92.5293 198.374 84.6411 189.881 91.1914C189.448 91.5249 189.368 92.1363 189.691 92.5765C193.399 97.6278 202.528 104.945 213.919 99.5187C214.352 99.3123 214.602 98.8365 214.444 98.3833Z" fill="#009600"/>
<path d="M386.366 55.1966C385.732 55.6348 384.949 55.8031 384.191 55.6645C383.433 55.5258 382.761 55.0916 382.322 54.4574L382.289 54.4084C382.072 54.0943 381.919 53.7406 381.838 53.3674C381.758 52.9943 381.752 52.6089 381.821 52.2334C381.889 51.858 382.031 51.4997 382.238 51.179C382.445 50.8584 382.714 50.5817 383.028 50.3647L404.985 35.226C405.619 34.7878 406.401 34.6195 407.16 34.7581C407.918 34.8968 408.59 35.3309 409.028 35.9652L409.062 36.0142C409.279 36.3283 409.432 36.682 409.513 37.0551C409.593 37.4283 409.599 37.8137 409.53 38.1891C409.462 38.5646 409.32 38.9229 409.113 39.2436C408.905 39.5642 408.637 39.8409 408.323 40.0579L386.366 55.1966Z" fill="#F8F6EE"/>
<path d="M386.29 98.4829C385.54 98.3064 384.89 97.8391 384.484 97.1836C384.078 96.5282 383.949 95.7384 384.126 94.988L384.14 94.93C384.227 94.5584 384.387 94.2077 384.61 93.8978C384.833 93.588 385.114 93.3251 385.439 93.1242C385.763 92.9232 386.124 92.7882 386.501 92.7267C386.878 92.6653 387.263 92.6786 387.635 92.766L413.59 98.8971C414.341 99.0736 414.99 99.541 415.396 100.196C415.802 100.852 415.931 101.642 415.754 102.392L415.741 102.45C415.653 102.822 415.494 103.172 415.271 103.482C415.048 103.792 414.766 104.055 414.441 104.256C414.117 104.457 413.756 104.592 413.379 104.653C413.002 104.715 412.617 104.701 412.246 104.614L386.29 98.4829Z" fill="#F8F6EE"/>
<path d="M391.759 75.9308C390.991 76.0033 390.226 75.7679 389.632 75.2765C389.038 74.785 388.664 74.0778 388.591 73.3103L388.586 73.251C388.55 72.871 388.589 72.4876 388.702 72.1228C388.814 71.758 388.997 71.4188 389.24 71.1247C389.483 70.8306 389.782 70.5873 390.12 70.4088C390.457 70.2302 390.826 70.1198 391.206 70.0839L417.761 67.6017C418.528 67.5293 419.293 67.7646 419.887 68.256C420.481 68.7475 420.855 69.4547 420.928 70.2222L420.933 70.2815C420.969 70.6615 420.93 71.0449 420.818 71.4097C420.705 71.7746 420.522 72.1137 420.279 72.4078C420.036 72.7019 419.737 72.9452 419.399 73.1238C419.062 73.3023 418.693 73.4127 418.313 73.4486L391.759 75.9308Z" fill="#F8F6EE"/>
<g filter="url(#filter3_i_1444_199)">
<path d="M298.196 38.9153L302 38.9593C306.565 39.0121 311.043 37.7669 314.87 35.3686L324.249 29.4896C332.816 24.1253 344.325 28.4301 346.901 37.9651C353.647 62.8806 353.343 89.1798 346.023 113.933C343.228 123.406 331.622 127.443 323.181 121.883L313.941 115.788C310.139 113.295 305.703 111.944 301.157 111.896L297.353 111.852C276.465 111.61 259.72 95.0865 259.953 74.9492C260.186 54.8118 277.308 38.6739 298.196 38.9153Z" fill="#FF25A2"/>
</g>
<path d="M349.05 101.685C354.495 99.9823 359.262 96.5998 362.668 92.0221C366.074 87.4444 367.944 81.9063 368.01 76.2009C368.076 70.4955 366.335 64.9157 363.035 60.2605C359.736 55.6053 355.049 52.1135 349.644 50.2854C352.635 67.315 352.434 84.7237 349.05 101.685Z" fill="#D3007C"/>
<g filter="url(#filter4_i_1444_199)">
<path d="M381.285 112.119C383.601 111.499 385.983 112.873 386.603 115.19C387.224 117.506 385.849 119.887 383.533 120.508L340.512 132.035C338.124 132.675 336.706 135.13 337.346 137.518L339.946 147.221C340.586 149.61 343.041 151.027 345.429 150.387L381.816 140.637L381.817 140.64L388.451 138.862C390.767 138.242 393.148 139.616 393.769 141.933C394.39 144.249 393.015 146.63 390.699 147.251L358.376 155.912C358.322 155.926 358.267 155.939 358.213 155.951L266.634 180.489C263.081 181.441 259.43 179.333 258.478 175.78L252.868 154.844C251.72 150.559 254.263 146.155 258.547 145.007L381.285 112.119Z" fill="#FFA200"/>
</g>
<path d="M337.049 136.411C336.573 134.635 337.628 132.809 339.404 132.333L376.898 122.286L381.815 140.638L344.321 150.684C342.545 151.16 340.719 150.106 340.243 148.33L337.049 136.411Z" fill="#FFBC00"/>
<g filter="url(#filter5_i_1444_199)">
<path d="M444.79 162.83C447.107 162.21 449.488 163.584 450.108 165.901C450.729 168.217 449.354 170.598 447.038 171.219L404.017 182.747C401.629 183.386 400.212 185.841 400.851 188.229L403.451 197.933C404.091 200.321 406.546 201.738 408.934 201.098L445.321 191.348L448.453 203.035L455.087 201.257C457.403 200.637 459.784 202.011 460.405 204.328C461.025 206.644 459.65 209.025 457.334 209.646L425.012 218.307C424.958 218.321 424.903 218.334 424.849 218.346L264.921 261.198C261.96 261.992 258.917 260.235 258.124 257.274L249.096 223.582C247.948 219.297 250.49 214.893 254.774 213.745L444.79 162.83Z" fill="#FDE600"/>
</g>
<path d="M324.46 207.512C323.984 205.736 325.039 203.91 326.815 203.434L441.035 172.829L449.07 202.818L334.85 233.423C333.074 233.899 331.248 232.845 330.772 231.068L324.46 207.512Z" fill="#FFBC00"/>
<path d="M61.5671 275.902L62.83 275.585C64.1466 277.766 66.4619 279.633 69.1404 279.266C70.0483 279.142 70.9542 278.919 71.8581 278.595C80.1185 275.634 87.8486 270.909 94.7284 265.349C98.0274 262.685 101.798 259.474 106.041 255.719C108.909 253.179 111.539 250.478 113.93 247.615C116.711 244.283 119.325 240.828 121.769 237.25C124.162 233.746 126.052 230.027 127.442 226.092C127.826 225.005 128.074 223.882 128.187 222.723C128.194 222.656 128.19 222.588 128.175 222.522C128.001 221.763 128.025 221.031 128.245 220.327C134.094 227.007 139.677 233.886 144.995 240.962C145.002 240.972 145.012 240.98 145.024 240.985C145.036 240.99 145.049 240.991 145.061 240.99C145.074 240.988 145.086 240.983 145.096 240.975C145.106 240.968 145.113 240.957 145.118 240.946C146.619 237.23 148.29 233.121 150.131 228.618C151.092 226.268 151.394 223.278 151.006 220.715C150.494 217.322 148.261 214.097 145.451 212.31C141.652 209.895 136.945 210.127 133.139 212.502C132.641 212.813 132.109 213.286 131.542 213.921C130.044 215.603 128.589 217.33 127.178 219.103C125.931 218.084 124.875 217.035 123.241 216.738C121.276 216.381 119.332 216.348 117.409 216.641C117.146 216.681 114.801 218.666 114.427 218.544C114.4 218.535 114.377 218.517 114.362 218.493C114.346 218.469 114.339 218.44 114.342 218.412C114.352 218.318 114.324 218.3 114.258 218.356C119.987 210.725 126.704 201.239 136.955 200.199C143.66 199.522 149.423 201.348 154.243 205.675C160.742 211.509 163.234 220.762 161.224 229.227C160.894 230.616 160.007 233.024 158.562 236.451C155.774 243.068 153.563 248.327 151.93 252.227C151.866 252.381 151.856 252.55 151.901 252.708C154.023 260.137 154.303 268.141 152.293 275.595C151.342 279.124 150.114 282.365 148.284 285.634C147.013 287.903 145.526 290.06 143.824 292.107C136.063 301.437 125.104 308.335 112.826 309.388C107.414 309.851 102.111 309.22 96.9179 307.495C92.4276 306.003 88.3603 303.987 84.6377 301.045C80.0181 297.398 75.7616 293.246 71.8684 288.589C68.3659 284.4 64.9321 280.171 61.5671 275.902Z" fill="#0091FF"/>
<mask id="mask1_1444_199" style="mask-type:alpha" maskUnits="userSpaceOnUse" x="61" y="200" width="101" height="110">
<path d="M61.5671 275.902L62.83 275.585C64.1466 277.766 66.4619 279.633 69.1404 279.266C70.0483 279.142 70.9542 278.919 71.8581 278.595C80.1185 275.634 87.8486 270.909 94.7284 265.349C98.0274 262.685 101.798 259.474 106.041 255.719C108.909 253.179 111.539 250.478 113.93 247.615C116.711 244.283 119.325 240.828 121.769 237.25C124.162 233.746 126.052 230.027 127.442 226.092C127.826 225.005 128.074 223.882 128.187 222.723C128.194 222.656 128.19 222.588 128.175 222.522C128.001 221.763 128.025 221.031 128.245 220.327C134.094 227.007 139.677 233.886 144.995 240.962C145.002 240.972 145.012 240.98 145.024 240.985C145.036 240.99 145.049 240.991 145.061 240.99C145.074 240.988 145.086 240.983 145.096 240.975C145.106 240.968 145.113 240.957 145.118 240.946C146.619 237.23 148.29 233.121 150.131 228.618C151.092 226.268 151.394 223.278 151.006 220.715C150.494 217.322 148.261 214.097 145.451 212.31C141.652 209.895 136.945 210.127 133.139 212.502C132.641 212.813 132.109 213.286 131.542 213.921C130.044 215.603 128.589 217.33 127.178 219.103C125.931 218.084 124.875 217.035 123.241 216.738C121.276 216.381 119.332 216.348 117.409 216.641C117.146 216.681 114.801 218.666 114.427 218.544C114.4 218.535 114.377 218.517 114.362 218.493C114.346 218.469 114.339 218.44 114.342 218.412C114.352 218.318 114.324 218.3 114.258 218.356C119.987 210.725 126.704 201.239 136.955 200.199C143.66 199.522 149.423 201.348 154.243 205.675C160.742 211.509 163.234 220.762 161.224 229.227C160.894 230.616 160.007 233.024 158.562 236.451C155.774 243.068 153.563 248.327 151.93 252.227C151.866 252.381 151.856 252.55 151.901 252.708C154.023 260.137 154.303 268.141 152.293 275.595C151.342 279.124 150.114 282.365 148.284 285.634C147.013 287.903 145.526 290.06 143.824 292.107C136.063 301.437 125.104 308.335 112.826 309.388C107.414 309.851 102.111 309.22 96.9179 307.495C92.4276 306.003 88.3603 303.987 84.6377 301.045C80.0181 297.398 75.7616 293.246 71.8684 288.589C68.3659 284.4 64.9321 280.171 61.5671 275.902Z" fill="#0091FF"/>
</mask>
<g mask="url(#mask1_1444_199)">
<path d="M142.782 303.491C98.3856 306.836 88.3509 279.773 71.3222 262.136L41.522 267.609L57.9425 303.491L106.9 322.952C119.976 322.344 145.458 317.601 142.782 303.491Z" fill="#006CE0"/>
</g>
<path d="M117.408 216.642C119.332 216.349 121.276 216.382 123.241 216.739C124.875 217.036 125.932 218.085 127.178 219.104L128.245 220.328C128.025 221.032 128.001 221.765 128.174 222.524C128.189 222.589 128.193 222.657 128.186 222.724C128.073 223.883 127.826 225.006 127.442 226.093C126.053 230.027 124.161 233.747 121.769 237.251C119.325 240.829 116.711 244.285 113.929 247.617C111.539 250.479 108.908 253.18 106.04 255.72C101.798 259.475 98.0269 262.686 94.7281 265.351C87.8482 270.91 80.118 275.635 71.8577 278.596C70.954 278.919 70.0483 279.143 69.1405 279.267C41.4905 277.246 98.8293 219.461 117.408 216.642Z" fill="#054BC1"/>
<path d="M107.66 254.278C107.624 254.313 107.6 254.346 107.588 254.377C107.563 254.439 107.545 254.476 107.534 254.487C105.907 256.111 104.292 257.627 102.689 259.033C98.0914 263.066 93.143 266.905 87.8438 270.549C83.6768 273.416 79.6749 275.725 75.8381 277.475C73.0041 278.768 69.8373 279.676 66.3375 280.199C65.8931 280.265 65.3394 280.413 64.6763 280.644L63.4134 280.962C62.6527 281.318 61.9662 281.649 61.354 281.953C59.5711 282.837 58.0489 283.956 56.7873 285.31C55.3594 286.844 54.1715 288.542 53.2236 290.405C51.9263 292.957 51.1057 294.752 50.7618 295.791C49.1646 300.597 48.0874 305.236 43.7539 308.147C40.4688 310.357 36.1786 310.935 32.586 309.41C26.9958 307.037 24.5918 300.847 25.4998 295.13C25.8506 292.92 26.438 290.827 27.262 288.851C29.1935 284.219 31.797 279.891 35.0726 275.867C45.5686 262.975 59.5208 261.43 74.7939 259.338C85.8203 258.255 96.7299 256.046 107.66 254.278Z" fill="#EA5D01"/>
<path d="M22.8563 336.527C17.8522 335.05 17.1836 328.876 18.7498 324.577C19.8022 321.693 21.438 319.267 23.657 317.299C26.1167 315.118 29.8435 314.65 32.5096 316.645C34.1997 317.91 34.7321 319.734 34.7878 321.907C34.8359 323.824 34.6179 325.714 34.1336 327.58C33.6363 329.489 32.9017 331.513 31.7564 333.114C29.7775 335.884 26.2426 337.526 22.8563 336.527Z" fill="#EA5D01"/>
</g>
<defs>
<filter id="filter0_i_1444_199" x="110.348" y="79.8738" width="177.491" height="199.778" filterUnits="userSpaceOnUse" color-interpolation-filters="sRGB">
<feFlood flood-opacity="0" result="BackgroundImageFix"/>
<feBlend mode="normal" in="SourceGraphic" in2="BackgroundImageFix" result="shape"/>
<feColorMatrix in="SourceAlpha" type="matrix" values="0 0 0 0 0 0 0 0 0 0 0 0 0 0 0 0 0 0 127 0" result="hardAlpha"/>
<feOffset dx="15.1" dy="-1.67"/>
<feComposite in2="hardAlpha" operator="arithmetic" k2="-1" k3="1"/>
<feColorMatrix type="matrix" values="0 0 0 0 0.407843 0 0 0 0 0.133333 0 0 0 0 0.737255 0 0 0 1 0"/>
<feBlend mode="normal" in2="shape" result="effect1_innerShadow_1444_199"/>
</filter>
<filter id="filter1_i_1444_199" x="227.557" y="147.011" width="175.23" height="71.0322" filterUnits="userSpaceOnUse" color-interpolation-filters="sRGB">
<feFlood flood-opacity="0" result="BackgroundImageFix"/>
<feBlend mode="normal" in="SourceGraphic" in2="BackgroundImageFix" result="shape"/>
<feColorMatrix in="SourceAlpha" type="matrix" values="0 0 0 0 0 0 0 0 0 0 0 0 0 0 0 0 0 0 127 0" result="hardAlpha"/>
<feOffset dx="11.0994" dy="-3"/>
<feComposite in2="hardAlpha" operator="arithmetic" k2="-1" k3="1"/>
<feColorMatrix type="matrix" values="0 0 0 0 1 0 0 0 0 0.635294 0 0 0 0 0 0 0 0 1 0"/>
<feBlend mode="normal" in2="shape" result="effect1_innerShadow_1444_199"/>
</filter>
<filter id="filter2_i_1444_199" x="192.641" y="98.1858" width="66.364" height="63.9282" filterUnits="userSpaceOnUse" color-interpolation-filters="sRGB">
<feFlood flood-opacity="0" result="BackgroundImageFix"/>
<feBlend mode="normal" in="SourceGraphic" in2="BackgroundImageFix" result="shape"/>
<feColorMatrix in="SourceAlpha" type="matrix" values="0 0 0 0 0 0 0 0 0 0 0 0 0 0 0 0 0 0 127 0" result="hardAlpha"/>
<feOffset dx="11.0994" dy="3.32982"/>
<feComposite in2="hardAlpha" operator="arithmetic" k2="-1" k3="1"/>
<feColorMatrix type="matrix" values="0 0 0 0 0.866667 0 0 0 0 0 0 0 0 0 0.0588235 0 0 0 1 0"/>
<feBlend mode="normal" in2="shape" result="effect1_innerShadow_1444_199"/>
</filter>
<filter id="filter3_i_1444_199" x="259.95" y="27.1523" width="91.7954" height="97.2585" filterUnits="userSpaceOnUse" color-interpolation-filters="sRGB">
<feFlood flood-opacity="0" result="BackgroundImageFix"/>
<feBlend mode="normal" in="SourceGraphic" in2="BackgroundImageFix" result="shape"/>
<feColorMatrix in="SourceAlpha" type="matrix" values="0 0 0 0 0 0 0 0 0 0 0 0 0 0 0 0 0 0 127 0" result="hardAlpha"/>
<feOffset dx="11.0994" dy="6.33"/>
<feComposite in2="hardAlpha" operator="arithmetic" k2="-1" k3="1"/>
<feColorMatrix type="matrix" values="0 0 0 0 0.827451 0 0 0 0 0 0 0 0 0 0.486275 0 0 0 1 0"/>
<feBlend mode="normal" in2="shape" result="effect1_innerShadow_1444_199"/>
</filter>
<filter id="filter4_i_1444_199" x="252.592" y="111.97" width="141.326" height="68.7478" filterUnits="userSpaceOnUse" color-interpolation-filters="sRGB">
<feFlood flood-opacity="0" result="BackgroundImageFix"/>
<feBlend mode="normal" in="SourceGraphic" in2="BackgroundImageFix" result="shape"/>
<feColorMatrix in="SourceAlpha" type="matrix" values="0 0 0 0 0 0 0 0 0 0 0 0 0 0 0 0 0 0 127 0" result="hardAlpha"/>
<feOffset dx="11.0994" dy="-3"/>
<feComposite in2="hardAlpha" operator="arithmetic" k2="-1" k3="1"/>
<feColorMatrix type="matrix" values="0 0 0 0 1 0 0 0 0 0.380392 0 0 0 0 0 0 0 0 1 0"/>
<feBlend mode="normal" in2="shape" result="effect1_innerShadow_1444_199"/>
</filter>
<filter id="filter5_i_1444_199" x="248.821" y="162.681" width="211.733" height="98.7078" filterUnits="userSpaceOnUse" color-interpolation-filters="sRGB">
<feFlood flood-opacity="0" result="BackgroundImageFix"/>
<feBlend mode="normal" in="SourceGraphic" in2="BackgroundImageFix" result="shape"/>
<feColorMatrix in="SourceAlpha" type="matrix" values="0 0 0 0 0 0 0 0 0 0 0 0 0 0 0 0 0 0 127 0" result="hardAlpha"/>
<feOffset dx="11.0994" dy="-3"/>
<feComposite in2="hardAlpha" operator="arithmetic" k2="-1" k3="1"/>
<feColorMatrix type="matrix" values="0 0 0 0 1 0 0 0 0 0.843137 0 0 0 0 0 0 0 0 1 0"/>
<feBlend mode="normal" in2="shape" result="effect1_innerShadow_1444_199"/>
</filter>
<clipPath id="clip0_1444_199">
<rect width="480" height="615" fill="white" transform="translate(0 0.414062)"/>
</clipPath>
</defs>
</svg>
