<svg width="600" height="601" viewBox="0 0 600 601" fill="none" xmlns="http://www.w3.org/2000/svg">
<g clip-path="url(#clip0_1439_94)">
<ellipse cx="293.099" cy="491.837" rx="279.492" ry="27.6338" fill="#F3F1EF"/>
<path d="M386.856 155.498C386.856 153.87 388.175 152.551 389.803 152.551H507.732C509.359 152.551 510.679 153.87 510.679 155.498V250.618C510.679 252.245 509.359 253.565 507.732 253.565H389.803C388.175 253.565 386.856 252.245 386.856 250.618V155.498Z" fill="#969492"/>
<path d="M448.766 244.381C448.766 242.753 450.085 241.434 451.712 241.434H557.628C559.255 241.434 560.575 242.753 560.575 244.381V250.618C560.575 252.245 559.255 253.565 557.628 253.565H451.712C450.085 253.565 448.766 252.245 448.766 250.618V244.381Z" fill="#969492"/>
<g filter="url(#filter0_i_1439_94)">
<path d="M-289.38 479.421C164.697 482.039 312.767 265.481 330.125 156.584C330.151 156.423 330.073 156.277 329.926 156.207C322.651 152.753 305.31 146.066 291.831 145.9C291.672 145.898 291.532 146.002 291.48 146.152C211.696 380.069 -128.282 399.588 -288.759 380.072C-288.978 380.045 -289.158 380.202 -289.16 380.422L-289.754 479.052C-289.756 479.256 -289.584 479.42 -289.38 479.421Z" fill="#00C000"/>
</g>
<path d="M243.789 144.744L335.526 80.1991C335.728 80.0568 336.01 80.1501 336.088 80.3849L370.115 183.487C370.209 183.771 369.943 184.042 369.657 183.955L243.892 145.398C243.6 145.308 243.538 144.921 243.789 144.744Z" fill="#00C000"/>
<rect x="74.4452" y="405.623" width="144.368" height="80.8255" rx="2.94681" fill="#FF8400"/>
<mask id="mask0_1439_94" style="mask-type:alpha" maskUnits="userSpaceOnUse" x="218" y="307" width="146" height="180">
<rect x="218.814" y="307.766" width="144.368" height="178.683" rx="2.94681" fill="#00A847"/>
</mask>
<g mask="url(#mask0_1439_94)">
<rect x="218.814" y="307.766" width="144.368" height="178.683" rx="2.94681" fill="#FFD700"/>
<path d="M349.381 474.377L339.496 438.496C338.895 436.317 336.087 435.688 334.558 437.354C316.569 456.949 292.183 472.388 268.918 480.851C267.56 481.345 266.769 482.762 267.102 484.168C270.486 498.44 277.311 526.251 282.46 544.051C282.896 545.557 284.501 546.393 285.99 545.903C335.864 529.488 355.342 496.986 349.381 474.377Z" fill="#FFBC00"/>
<ellipse cx="328.928" cy="307.645" rx="40.4216" ry="12.948" fill="#FFBC00"/>
</g>
<mask id="mask1_1439_94" style="mask-type:alpha" maskUnits="userSpaceOnUse" x="363" y="253" width="145" height="234">
<rect x="363.18" y="253.567" width="144.368" height="232.883" rx="2.94681" fill="#0040FF"/>
</mask>
<g mask="url(#mask1_1439_94)">
<rect x="399.978" y="253.567" width="144.368" height="232.883" rx="2.94681" fill="#0091FF"/>
<rect x="363.18" y="253.567" width="144.368" height="232.883" rx="2.94681" fill="#0091FF"/>
<ellipse cx="474.274" cy="253.249" rx="80.638" ry="12.948" fill="#006CE0"/>
</g>
<g filter="url(#filter1_i_1439_94)">
<rect x="394.294" y="159.74" width="109.092" height="81.7238" fill="#01092A"/>
</g>
<circle cx="425.943" cy="166.045" r="3.73843" fill="#009600"/>
<circle cx="414.225" cy="166.045" r="3.73843" fill="#F8AB01"/>
<circle cx="402.505" cy="166.045" r="3.73843" fill="#FF391F"/>
<path d="M419.996 445.868H528.218C533.918 445.868 538.539 450.489 538.539 456.189V486.015C538.539 491.716 533.918 496.337 528.218 496.337H419.996V445.868Z" fill="#FF6100"/>
<path d="M419.996 445.868H528.218C533.918 445.868 538.539 450.489 538.539 456.189V462.688H419.996V445.868Z" fill="#FFBC00"/>
<path d="M419.993 462.695H538.537V479.515H419.993V462.695Z" fill="#FF8400"/>
<path d="M419.996 445.868L383.781 469.531C382.648 470.272 382.648 471.933 383.781 472.673L419.996 496.337V445.868Z" fill="#FDE600"/>
<path d="M401.935 457.67L383.778 469.534C382.644 470.275 382.644 471.936 383.778 472.676L401.935 484.541V457.67Z" fill="#0F1A45"/>
<g filter="url(#filter2_i_1439_94)">
<ellipse cx="300.354" cy="269.046" rx="33.5592" ry="42.0649" transform="rotate(-8.02122 300.354 269.046)" fill="#FE3F00"/>
</g>
<ellipse cx="33.5592" cy="42.0649" rx="33.5592" ry="42.0649" transform="matrix(-0.990216 -0.13954 -0.13954 0.990216 368.529 232.075)" fill="#FE3F00"/>
<path d="M315.08 232.759C318.134 226.215 311.944 207.769 299.095 207.12C298.634 207.096 298.237 207.436 298.186 207.895C297.384 215.144 299.527 229.062 314.091 233.177C314.481 233.288 314.909 233.127 315.08 232.759Z" fill="#009600"/>
<path d="M411.018 212.509L435.397 199.321L460.376 218.904L484.555 193.326" stroke="#054BC1" stroke-width="1.87657"/>
<circle cx="411.076" cy="212.146" r="4.6774" fill="#0091FF"/>
<circle cx="435.517" cy="199.391" r="4.6774" fill="#0091FF"/>
<circle cx="459.959" cy="218.332" r="4.6774" fill="#0091FF"/>
<circle cx="484.4" cy="193.435" r="4.6774" fill="#0091FF"/>
<path d="M315.365 461.766L301.312 410.759C300.712 408.579 297.908 407.953 296.396 409.634C271.428 437.397 237.024 459.229 204.34 470.948C202.98 471.435 202.191 472.846 202.523 474.252C207.137 493.754 216.862 533.448 224.053 558.139C224.492 559.644 226.103 560.482 227.595 559.998C296.602 537.635 323.564 492.864 315.365 461.766Z" fill="#F8F6EE"/>
<g filter="url(#filter3_d_1439_94)">
<path d="M290.178 429.751C291.716 428.482 294.049 429.171 294.653 431.071L300.452 449.345C300.8 450.44 300.447 451.636 299.56 452.368L283.962 465.236C282.424 466.504 280.091 465.816 279.488 463.916L273.688 445.642C273.341 444.547 273.694 443.35 274.58 442.619L290.178 429.751Z" fill="white"/>
</g>
<path d="M290.218 437.509L291.669 442.078C291.726 442.26 291.667 442.46 291.52 442.582L287.604 445.813C287.347 446.024 286.958 445.909 286.858 445.593L285.407 441.024C285.35 440.841 285.409 440.641 285.556 440.519L289.472 437.289C289.729 437.078 290.118 437.192 290.218 437.509Z" fill="#F8F6EE" stroke="black" stroke-width="0.938287"/>
<path d="M283.591 442.789L285.041 447.358C285.099 447.541 285.04 447.741 284.892 447.862L280.976 451.093C280.72 451.304 280.331 451.19 280.23 450.873L278.78 446.304C278.722 446.122 278.781 445.922 278.929 445.8L282.845 442.569C283.101 442.358 283.49 442.473 283.591 442.789Z" fill="#F8F6EE" stroke="black" stroke-width="0.938287"/>
<path d="M285.268 451.381L284.079 452.336M286.851 453.567L284.916 455.144M281.846 453.145L282.564 455.405C282.764 456.036 283.537 456.267 284.05 455.849L284.916 455.144M284.916 455.144L285.533 456.72" stroke="black" stroke-width="0.938287" stroke-linecap="round"/>
<path d="M292.745 445.361L294.196 449.93C294.254 450.112 294.194 450.312 294.047 450.434L290.131 453.665C289.874 453.876 289.485 453.762 289.385 453.445L287.935 448.876C287.877 448.693 287.936 448.493 288.083 448.372L291.999 445.141C292.256 444.93 292.645 445.044 292.745 445.361Z" fill="#F8F6EE" stroke="black" stroke-width="0.938287"/>
<path d="M288.332 491.601C304.107 481.63 313.992 474.685 315.363 461.763C319.787 478.543 313.974 499.305 296.842 518.378C295.084 512.381 290.922 498.629 288.332 491.601Z" fill="#E3DEDA"/>
<path d="M222.686 481.325C232.706 485.181 238.101 490.737 232.723 495.296C232.038 495.877 232.262 497.228 233.082 497.595C236.757 499.243 236.87 502.671 236.209 505.218C235.967 506.151 236.918 509.635 237.719 510.172C242.762 513.553 243.698 517.029 237.648 522.9C237.141 523.392 237.299 524.266 237.937 524.568C242.575 526.769 244.944 530.369 245.577 532.027" stroke="#E3DEDA" stroke-width="2.43955" stroke-linecap="round"/>
<path d="M241.931 471.008C247.021 474.751 246.957 480.813 246.285 483.649C246.148 484.23 246.485 484.868 247.05 485.061C252.228 486.833 253.654 492.22 251.594 495.733C251.17 496.456 251.541 497.648 252.348 497.874C259.292 499.811 260.767 506.583 258.307 510.307C258.031 510.725 258.038 511.292 258.402 511.635C261.368 514.426 264.374 516.529 259.672 523.014" stroke="#E3DEDA" stroke-width="2.43955" stroke-linecap="round"/>
<path d="M259.365 460.759C263.977 462.77 263.975 467.769 263.158 471.041C262.983 471.741 263.576 472.469 264.291 472.565C269.232 473.224 270.986 480.617 270.368 483.384C270.254 483.897 270.288 484.539 270.664 484.906C274.644 488.792 277.545 492.405 272.841 498.433C272.463 498.917 272.6 499.641 273.147 499.92C277.509 502.15 280.881 504.265 280.238 506.678" stroke="#E3DEDA" stroke-width="2.43955" stroke-linecap="round"/>
<path d="M151.393 188.161L164.875 183.191L169.856 169.699C170.237 168.666 170.925 167.774 171.829 167.144C172.732 166.515 173.806 166.177 174.907 166.177C176.008 166.177 177.083 166.515 177.986 167.144C178.889 167.774 179.578 168.666 179.959 169.699L184.929 183.191L198.421 188.161C199.454 188.542 200.346 189.231 200.976 190.134C201.605 191.037 201.943 192.112 201.943 193.213C201.943 194.314 201.605 195.388 200.976 196.291C200.346 197.195 199.454 197.883 198.421 198.264L184.94 203.234L179.959 216.727C179.578 217.76 178.889 218.651 177.986 219.281C177.083 219.91 176.008 220.248 174.907 220.248C173.806 220.248 172.732 219.91 171.829 219.281C170.925 218.651 170.237 217.76 169.856 216.727L164.886 203.245L151.393 198.264C150.36 197.883 149.469 197.195 148.839 196.291C148.21 195.388 147.872 194.314 147.872 193.213C147.872 192.112 148.21 191.037 148.839 190.134C149.469 189.231 150.36 188.542 151.393 188.161Z" fill="#FF8400"/>
<path d="M109.064 216.036V216.036C113.919 214.246 117.75 210.412 119.543 205.557V205.557C119.759 204.971 120.149 204.465 120.662 204.108C121.175 203.75 121.785 203.559 122.41 203.559C123.035 203.559 123.644 203.75 124.157 204.108C124.67 204.465 125.06 204.971 125.277 205.557V205.557C127.067 210.416 130.897 214.246 135.756 216.036V216.036C136.342 216.252 136.848 216.643 137.205 217.156C137.563 217.668 137.754 218.278 137.754 218.903C137.754 219.528 137.563 220.138 137.205 220.651C136.848 221.163 136.342 221.554 135.756 221.77V221.77C130.9 223.56 127.069 227.394 125.277 232.249V232.249C125.06 232.835 124.67 233.341 124.157 233.699C123.644 234.056 123.035 234.248 122.41 234.248C121.785 234.248 121.175 234.056 120.662 233.699C120.149 233.341 119.759 232.835 119.543 232.249V232.249C117.752 227.394 113.918 223.563 109.064 221.77V221.77C108.477 221.554 107.971 221.163 107.614 220.651C107.257 220.138 107.065 219.528 107.065 218.903C107.065 218.278 107.257 217.668 107.614 217.156C107.971 216.643 108.477 216.252 109.064 216.036Z" fill="#FFBC00"/>
<path d="M125.89 163.036V176.536" stroke="#FFD700" stroke-width="2.81486" stroke-linecap="round"/>
<path d="M119.137 169.78L132.637 169.78" stroke="#FFD700" stroke-width="2.81486" stroke-linecap="round"/>
</g>
<defs>
<filter id="filter0_i_1439_94" x="-289.754" y="145.9" width="619.885" height="333.545" filterUnits="userSpaceOnUse" color-interpolation-filters="sRGB">
<feFlood flood-opacity="0" result="BackgroundImageFix"/>
<feBlend mode="normal" in="SourceGraphic" in2="BackgroundImageFix" result="shape"/>
<feColorMatrix in="SourceAlpha" type="matrix" values="0 0 0 0 0 0 0 0 0 0 0 0 0 0 0 0 0 0 127 0" result="hardAlpha"/>
<feOffset dx="3.68351" dy="-17.6809"/>
<feComposite in2="hardAlpha" operator="arithmetic" k2="-1" k3="1"/>
<feColorMatrix type="matrix" values="0 0 0 0 0 0 0 0 0 0.588235 0 0 0 0 0 0 0 0 1 0"/>
<feBlend mode="normal" in2="shape" result="effect1_innerShadow_1439_94"/>
</filter>
<filter id="filter1_i_1439_94" x="394.294" y="159.74" width="109.092" height="81.7236" filterUnits="userSpaceOnUse" color-interpolation-filters="sRGB">
<feFlood flood-opacity="0" result="BackgroundImageFix"/>
<feBlend mode="normal" in="SourceGraphic" in2="BackgroundImageFix" result="shape"/>
<feColorMatrix in="SourceAlpha" type="matrix" values="0 0 0 0 0 0 0 0 0 0 0 0 0 0 0 0 0 0 127 0" result="hardAlpha"/>
<feOffset dy="9.38287"/>
<feComposite in2="hardAlpha" operator="arithmetic" k2="-1" k3="1"/>
<feColorMatrix type="matrix" values="0 0 0 0 0.133333 0 0 0 0 0.239216 0 0 0 0 0.415686 0 0 0 1 0"/>
<feBlend mode="normal" in2="shape" result="effect1_innerShadow_1439_94"/>
</filter>
<filter id="filter2_i_1439_94" x="266.603" y="227.126" width="67.502" height="83.8394" filterUnits="userSpaceOnUse" color-interpolation-filters="sRGB">
<feFlood flood-opacity="0" result="BackgroundImageFix"/>
<feBlend mode="normal" in="SourceGraphic" in2="BackgroundImageFix" result="shape"/>
<feColorMatrix in="SourceAlpha" type="matrix" values="0 0 0 0 0 0 0 0 0 0 0 0 0 0 0 0 0 0 127 0" result="hardAlpha"/>
<feOffset dx="2.21011" dy="4.05186"/>
<feComposite in2="hardAlpha" operator="arithmetic" k2="-1" k3="1"/>
<feColorMatrix type="matrix" values="0 0 0 0 0.868419 0 0 0 0 0 0 0 0 0 0.0581716 0 0 0 1 0"/>
<feBlend mode="normal" in2="shape" result="effect1_innerShadow_1439_94"/>
</filter>
<filter id="filter3_d_1439_94" x="273.556" y="429.106" width="28.9043" height="37.7132" filterUnits="userSpaceOnUse" color-interpolation-filters="sRGB">
<feFlood flood-opacity="0" result="BackgroundImageFix"/>
<feColorMatrix in="SourceAlpha" type="matrix" values="0 0 0 0 0 0 0 0 0 0 0 0 0 0 0 0 0 0 127 0" result="hardAlpha"/>
<feOffset dx="1.87657" dy="0.938287"/>
<feComposite in2="hardAlpha" operator="out"/>
<feColorMatrix type="matrix" values="0 0 0 0 0.890196 0 0 0 0 0.870588 0 0 0 0 0.854902 0 0 0 1 0"/>
<feBlend mode="normal" in2="BackgroundImageFix" result="effect1_dropShadow_1439_94"/>
<feBlend mode="normal" in="SourceGraphic" in2="effect1_dropShadow_1439_94" result="shape"/>
</filter>
<clipPath id="clip0_1439_94">
<rect width="600" height="600" fill="white" transform="translate(0 0.522461)"/>
</clipPath>
</defs>
</svg>
