<svg width="200" height="200" viewBox="0 0 200 200" fill="none" xmlns="http://www.w3.org/2000/svg">
<ellipse cx="99.9999" cy="171.615" rx="89.7001" ry="6.6737" fill="#EEEBE4"/>
<path d="M97.1369 129.651C98.4926 127.299 101.507 127.299 102.863 129.651L122.867 164.357C124.371 166.967 122.736 170.445 120.004 170.445H79.9965C77.2644 170.445 75.6288 166.967 77.1334 164.357L97.1369 129.651Z" fill="#FFD700"/>
<path d="M76.9467 164.725C76.9914 166.17 77.1423 167.63 77.4047 169.093C76.5357 167.936 76.2634 166.226 76.9467 164.725ZM97.1371 129.652C98.4928 127.301 101.507 127.301 102.863 129.652L111.579 144.776C105.787 139.774 99.013 137.22 92.4437 139.72C91.9443 139.91 91.4556 140.118 90.9769 140.339L97.1371 129.652Z" fill="#FFBC00"/>
<rect x="6.08313" y="146.457" width="198.14" height="13.1419" rx="3.2694" transform="rotate(-18.7147 6.08313 146.457)" fill="#FDE600"/>
<path fill-rule="evenodd" clip-rule="evenodd" d="M154.964 96.4486L150.607 83.5898L140.963 86.8569L145.319 99.7157L134.068 103.527C133.215 103.816 132.283 103.754 131.476 103.356C130.669 102.957 130.053 102.254 129.764 101.402L123.23 82.1134L114.917 84.9297C114.281 85.1449 113.596 85.1668 112.948 84.9926C112.299 84.8184 111.717 84.4559 111.275 83.951C110.833 83.4461 110.55 82.8214 110.463 82.1559C110.376 81.4904 110.488 80.814 110.785 80.2121L129.036 43.2602C129.435 42.4533 130.138 41.8378 130.99 41.549C131.842 41.2602 132.775 41.3219 133.582 41.7203L170.534 59.9713C171.135 60.2686 171.635 60.7377 171.971 61.3192C172.306 61.9007 172.461 62.5685 172.417 63.2383C172.372 63.908 172.131 64.5496 171.722 65.0819C171.313 65.6142 170.755 66.0133 170.12 66.2288L161.806 69.045L168.341 88.3333C168.63 89.1859 168.568 90.1183 168.169 90.9254C167.771 91.7325 167.068 92.3482 166.215 92.637L154.964 96.4486Z" fill="#FF8400"/>
<path d="M161.806 69.0457L168.341 88.334C168.629 89.1866 168.568 90.1191 168.169 90.9262C167.77 91.7333 167.067 92.349 166.215 92.6378L159.002 95.0811C159.855 94.7923 160.558 94.1766 160.956 93.3696C161.355 92.5625 161.417 91.63 161.128 90.7774L154.594 71.4891L161.806 69.0457Z" fill="#FF6100"/>
<path d="M162.907 68.6729C163.542 68.4574 164.1 68.0584 164.509 67.5262C164.918 66.9939 165.16 66.3522 165.204 65.6825C165.248 65.0128 165.093 64.3448 164.758 63.7633C164.423 63.1818 163.923 62.7128 163.321 62.4155L128.154 45.0463L129.036 43.2609C129.435 42.4541 130.137 41.8386 130.99 41.5498C131.842 41.2611 132.774 41.3226 133.582 41.7211L170.533 59.9721C171.135 60.2694 171.635 60.7385 171.97 61.32C172.305 61.9015 172.461 62.5693 172.417 63.2391C172.372 63.9088 172.13 64.5505 171.722 65.0828C171.313 65.615 170.755 66.014 170.119 66.2295L162.907 68.6729Z" fill="#FF6100"/>
<path d="M55.3555 80.0101L43.4538 84.042L41.4379 78.0912C40.319 74.7885 36.7738 73.0374 33.4711 74.1563L21.5694 78.1882C18.2667 79.307 16.5157 82.8522 17.6345 86.155L19.6505 92.1058L7.74878 96.1377C4.44607 97.2565 2.72479 100.792 3.84364 104.094L14.9016 136.834C16.0204 140.137 19.5657 141.888 22.8684 140.769L70.4751 124.641C73.7778 123.523 75.5288 119.977 74.41 116.675L63.3223 83.945C62.2034 80.6423 58.6582 78.8913 55.3555 80.0101ZM37.503 86.058L25.6013 90.0899L23.5854 84.139L35.487 80.1071L37.503 86.058Z" fill="#FF6100"/>
<path d="M81.7805 120.812C79.3191 126.424 69.0728 133.349 55.7483 137.863C42.4238 142.376 30.0786 143.105 24.713 140.145L81.7805 120.812Z" fill="#FFD700"/>
<path d="M183.455 86.3672C181.355 91.8568 172.154 98.4275 160.061 102.524C147.969 106.62 136.668 106.995 131.664 103.912L183.455 86.3672Z" fill="#FFD700"/>
<path d="M55.3555 80.0117C58.6582 78.8928 62.2034 80.6436 63.3223 83.9463L74.41 116.676C75.5288 119.979 73.7777 123.524 70.475 124.643L63.5736 126.981C66.8762 125.862 68.6271 122.317 67.5083 119.014L56.4206 86.2843C55.3192 83.0333 51.8668 81.2858 48.6088 82.2993L48.4541 82.3496L55.3555 80.0117Z" fill="#FE3F00"/>
</svg>
