<svg width="200" height="200" viewBox="0 0 200 200" fill="none" xmlns="http://www.w3.org/2000/svg">
<ellipse cx="98.2998" cy="171.615" rx="71.6377" ry="6.6737" fill="#EEEBE4"/>
<ellipse cx="100.243" cy="111.361" rx="60.2485" ry="59.4541" transform="rotate(-11.1801 100.243 111.361)" fill="#D3007C"/>
<ellipse cx="93.6828" cy="110.838" rx="41.0701" ry="42.4165" fill="#FFCEE9"/>
<path d="M93.3268 46.7871C126.582 46.7871 153.539 73.7453 153.54 107C153.54 140.255 126.582 167.214 93.3268 167.214C60.0719 167.214 33.1139 140.255 33.1139 107C33.1141 73.7453 60.072 46.7871 93.3268 46.7871ZM110.912 66.1836C103.769 61.8642 95.0267 59.7116 86.7067 60.0146C75.1661 60.4331 64.0576 65.251 56.1285 73.749C46.6958 83.8583 42.8805 97.2781 44.5524 111.015C46.369 125.95 55.6065 138.829 68.901 145.595C73.3292 147.849 78.2311 149.286 83.6071 149.905C87.3925 150.341 91.395 150.112 95.0729 149.457C103.713 147.918 111.229 144.191 117.619 138.278C126.054 130.474 131.31 119.996 132.139 108.496C133.357 91.5567 125.559 75.0414 110.912 66.1836Z" fill="#FF5AB8"/>
<path d="M91.5326 105.373C89.7459 106.175 88.657 107.566 88.2658 109.544C84.3296 105.599 80.3949 101.655 76.4618 97.7126C75.7139 96.9632 75.3916 96.0921 75.691 95.0417C75.8598 94.4488 76.4496 93.9761 76.9361 93.5869C77.5958 93.0609 78.5185 93.0062 79.2361 93.3893C79.5705 93.5677 79.9374 93.8565 80.3366 94.2558C84.0631 97.9893 87.795 101.695 91.5326 105.373Z" fill="#FF25A2"/>
<path d="M97.709 107.682C97.3097 106.966 96.691 106.335 95.8529 105.789C99.7607 102.265 106.748 96.0707 110.613 92.5895C110.873 92.3554 111.192 92.0255 111.505 91.9252C112.543 91.5938 113.405 92.5697 113.06 93.6019C112.993 93.8006 112.787 94.0544 112.441 94.3635C111.907 94.8398 105.194 100.816 98.5041 106.91C98.2304 107.159 97.9654 107.417 97.709 107.682Z" fill="#F8F6EE"/>
<path d="M95.8529 105.788C96.691 106.333 97.3097 106.964 97.709 107.681C98.6303 109.355 98.6764 111.058 97.8474 112.791C97.067 114.222 95.9112 115.14 94.3799 115.546C92.7361 115.84 91.3127 115.466 90.1098 114.424C88.6454 113.154 88.0307 111.527 88.2658 109.543C88.657 107.564 89.746 106.174 91.5326 105.371C93.0802 104.844 94.5203 104.983 95.8529 105.788Z" fill="#D3007C"/>
<path d="M94.38 115.546C95.9113 115.141 97.0671 114.223 97.8475 112.792C97.9509 112.763 98.0258 112.784 98.0725 112.853C100.534 116.426 103.334 120.504 106.473 125.088C107.031 125.905 106.845 126.937 106.102 127.603C105.543 128.103 105.123 128.524 104.416 128.541C103.633 128.561 102.986 128.197 102.476 127.449C99.7664 123.471 97.0676 119.504 94.38 115.546Z" fill="#FF25A2"/>
<circle cx="93.6829" cy="78.1344" r="2.66173" fill="#FF25A2"/>
<circle cx="93.6829" cy="143.545" r="2.66173" fill="#FF25A2"/>
<circle cx="126.389" cy="110.838" r="2.66173" transform="rotate(90 126.389 110.838)" fill="#FF25A2"/>
<circle cx="60.9767" cy="110.838" r="2.66173" transform="rotate(90 60.9767 110.838)" fill="#FF25A2"/>
<circle cx="110.036" cy="82.5149" r="2.66173" transform="rotate(30 110.036 82.5149)" fill="#FF25A2"/>
<circle cx="77.3297" cy="139.163" r="2.66173" transform="rotate(30 77.3297 139.163)" fill="#FF25A2"/>
<circle cx="122.007" cy="127.193" r="2.66173" transform="rotate(120 122.007 127.193)" fill="#FF25A2"/>
<circle cx="65.3585" cy="94.486" r="2.66173" transform="rotate(120 65.3585 94.486)" fill="#FF25A2"/>
<circle cx="122.007" cy="94.4856" r="2.66173" transform="rotate(60 122.007 94.4856)" fill="#FF25A2"/>
<circle cx="65.3584" cy="127.191" r="2.66173" transform="rotate(60 65.3584 127.191)" fill="#FF25A2"/>
<circle cx="110.036" cy="139.162" r="2.66173" transform="rotate(150 110.036 139.162)" fill="#FF25A2"/>
<circle cx="77.3299" cy="82.514" r="2.66173" transform="rotate(150 77.3299 82.514)" fill="#FF25A2"/>
</svg>
