<svg width="200" height="200" viewBox="0 0 200 200" fill="none" xmlns="http://www.w3.org/2000/svg">
<path d="M105.674 130.061L65.5737 112.09L30.2264 124.417L31.7116 160.061L63.643 177.586V146.397L105.674 130.061Z" fill="white"/>
<path d="M153.355 95.8945L153.177 95.9641C153.126 95.9833 153.07 95.9851 153.017 95.9693C150.313 95.1201 147.315 95.3516 144.936 96.9229C144.595 97.148 144.256 97.3782 143.918 97.6137C142.106 90.6544 139.032 84.3053 134.697 78.5664C131.154 73.8762 127.137 69.7057 122.645 66.0549C122.639 66.05 122.632 66.0468 122.625 66.0456C122.617 66.0444 122.609 66.0452 122.602 66.0481C122.595 66.0509 122.589 66.0556 122.584 66.0617C122.579 66.0677 122.575 66.075 122.574 66.0828L122.384 67.2573C122.362 67.3874 122.375 67.5211 122.421 67.6454C123.796 71.4388 124.691 75.3147 125.106 79.2729C125.74 85.3389 125.622 91.4096 124.751 97.485C124.418 99.8063 124.008 101.71 121.831 102.881C121.634 102.416 121.461 101.942 121.312 101.459C121.124 100.849 120.947 100.38 120.781 100.052C120.132 98.7697 119.361 97.6427 118.469 96.6706C116.054 94.0372 113.159 91.6822 109.786 89.6057C108.037 88.5303 106.913 87.836 106.413 87.5228C106.361 87.4903 106.273 87.5019 106.151 87.5576C100.632 84.307 95.7081 81.6847 91.3786 79.6905C87.1826 77.7578 82.9367 75.944 78.641 74.2491C78.5714 74.2213 78.4977 74.2103 78.42 74.2161C78.3817 74.1256 78.2796 74.0508 78.1137 73.9916C74.3933 72.6424 70.9189 71.7248 67.6904 71.2387C66.1115 71.0009 64.564 70.8867 63.0478 70.8959C61.1075 70.9081 59.0577 71.2753 57.3123 72.2149C57.2687 72.2385 57.2179 72.2453 57.1696 72.2341L56.8721 72.1662C56.7259 70.9951 57.1644 69.7979 57.7474 68.7886C59.2856 66.1321 61.2688 63.8223 63.6968 61.8595C67.3876 58.8752 71.1097 56.225 75.2112 54.283C77.1485 53.3642 78.9687 52.5754 80.6717 51.9165C83.3967 50.8608 86.1826 50.1352 89.0295 49.7396C89.2 49.7152 89.37 49.5789 89.5393 49.3306C92.7319 44.6671 95.4656 40.5146 97.7405 36.8731C98.7254 35.2954 100.048 34.1852 101.71 33.5425C104.409 32.4967 107.101 33.2885 109.716 34.5048C115.883 37.3702 119.027 38.8331 119.147 38.8934C120.917 39.7704 122.422 40.7327 123.769 41.9908C124.914 43.061 125.584 44.5349 126.005 46.0871C126.245 46.971 126.308 48.2181 126.193 49.8283C126.044 51.906 125.805 54.0063 125.17 55.9622C125.16 55.9936 125.16 56.0276 125.172 56.0588C125.183 56.09 125.204 56.1167 125.233 56.1345C133.608 61.4871 140.718 68.9627 146.041 77.364C149.612 83.0019 151.938 89.3777 153.355 95.8945Z" fill="#9526CC"/>
<path d="M78.4201 74.2132C78.0744 75.3165 77.8516 76.3774 77.7519 77.3959C77.2298 82.7242 78.7797 87.3024 82.4015 91.1307C82.6056 91.3465 82.8417 91.5564 83.1097 91.7606C83.5981 92.133 83.858 92.3383 83.8893 92.3766C83.8948 92.3828 83.8982 92.3905 83.8992 92.3987C83.9002 92.4069 83.8986 92.4152 83.8947 92.4226C83.8908 92.4301 83.8847 92.4363 83.8772 92.4405C83.8698 92.4447 83.8613 92.4467 83.8527 92.4462C83.7622 92.4393 83.5349 92.343 83.1706 92.1574C80.4398 90.7606 77.887 89.4277 75.5123 88.1586C71.0141 85.7537 66.817 83.2427 62.9 80.1993C61.6488 79.2283 60.3263 77.9823 59.3275 76.8513C58.3751 75.7712 57.6245 74.5769 57.0758 73.2684C56.9807 73.0421 56.9238 72.7834 56.9053 72.4923L56.8722 72.1634L57.1698 72.2312C57.2181 72.2425 57.2688 72.2357 57.3124 72.2121C59.0578 71.2724 61.1076 70.9053 63.0479 70.8931C64.5641 70.8838 66.1116 70.9981 67.6905 71.2359C70.919 71.722 74.3935 72.6396 78.1138 73.9888C78.2797 74.0479 78.3818 74.1228 78.4201 74.2132Z" fill="#6822BC"/>
<path d="M78.42 74.2132C78.4978 74.2074 78.5714 74.2184 78.641 74.2462C82.9368 75.9411 87.1827 77.7549 91.3787 79.6876C95.7081 81.6818 100.632 84.3041 106.151 87.5547C106.191 87.644 106.182 87.7391 106.123 87.84C104.716 90.2774 102.764 92.1845 100.269 93.5616C96.6182 95.5766 92.7905 95.9687 88.7859 94.7379C88.7697 94.7332 88.7524 94.7348 88.7375 94.7422C88.7226 94.7496 88.7113 94.7624 88.7059 94.7779L88.7041 94.7814C88.6995 94.7948 88.7002 94.8095 88.706 94.8224C88.7118 94.8353 88.7223 94.8456 88.7354 94.851C92.4013 96.4461 96.4198 98.0586 100.791 99.6885C104.101 100.923 107.382 101.95 110.635 102.769C113.004 103.366 115.355 103.685 117.688 103.726C119 103.748 120.286 103.511 121.545 103.016L116.483 149.853C115.688 149.872 114.893 149.889 114.101 149.901C113.025 149.919 112.235 149.968 111.731 150.049C110.877 150.189 109.927 150.394 108.879 150.667C106.878 151.189 105.883 152.491 104.816 154.135C103.981 155.425 103.535 156.441 103.232 157.998L101.294 157.563C101.474 157.432 101.657 157.308 101.844 157.191C102.589 156.724 103.06 156.117 103.218 155.245C103.239 155.129 103.267 155.06 103.302 155.036C103.358 155.001 103.438 154.975 103.544 154.96C103.592 154.953 103.638 154.931 103.673 154.897C103.919 154.664 104.002 154.39 103.921 154.076C103.796 153.585 103.723 153.134 103.7 152.722C103.863 152.751 103.935 152.687 103.916 152.529C103.913 152.501 103.902 152.475 103.885 152.453C103.868 152.431 103.845 152.414 103.819 152.404C103.039 152.106 102.232 151.898 101.398 151.781C101.744 151.542 101.971 151.343 102.079 151.184C102.235 150.953 102.449 150.488 102.721 149.788C102.834 149.494 102.77 149.2 102.689 148.89C102.685 148.875 102.685 148.859 102.687 148.844C102.69 148.828 102.696 148.813 102.705 148.801C102.715 148.788 102.727 148.777 102.74 148.77C102.754 148.762 102.769 148.757 102.785 148.756C103.187 148.73 103.424 148.488 103.497 148.031C103.499 148.018 103.5 148.005 103.499 147.992L103.38 146.997C103.55 146.955 103.524 146.85 103.302 146.682C103.043 146.487 102.585 146.336 101.927 146.228C102.587 145.542 102.964 144.533 103.384 143.691C103.431 143.599 103.464 143.499 103.481 143.395L103.791 141.552C103.344 141.094 102.71 140.801 101.889 140.672C102.261 140.247 102.586 139.807 102.863 139.351C103.027 139.081 103.127 138.824 103.165 138.58C103.206 138.309 103.303 138.081 103.453 137.898C103.491 137.853 103.518 137.8 103.534 137.743C103.549 137.686 103.553 137.627 103.544 137.569C103.49 137.213 103.519 136.878 103.629 136.565C103.731 136.493 103.797 136.42 103.826 136.344C103.835 136.319 103.835 136.292 103.825 136.267C103.815 136.243 103.796 136.223 103.772 136.212L101.931 135.394C102.334 134.903 102.585 134.568 102.683 134.388C103.042 133.724 103.325 132.892 103.532 131.893C103.579 131.66 103.595 131.366 103.58 131.011C103.631 130.969 103.666 130.926 103.685 130.882C103.692 130.864 103.695 130.845 103.694 130.827C103.694 130.808 103.69 130.789 103.682 130.772C103.675 130.755 103.664 130.74 103.65 130.727C103.637 130.714 103.621 130.704 103.603 130.697C99.6367 129.203 95.5045 127.593 91.2064 125.867C86.3584 123.92 82.2831 122.174 78.9803 120.629C74.7507 118.65 70.51 116.502 66.2583 114.185C66.1691 114.137 66.0708 114.108 65.9698 114.1C65.8688 114.093 65.7673 114.106 65.6719 114.14C64.5292 114.551 63.3274 114.966 62.0664 115.384C58.1558 116.684 54.0688 117.959 49.8055 119.211C44.4749 120.775 38.7517 122.283 32.6358 123.735C32.6303 123.736 32.6247 123.736 32.6194 123.734C32.6142 123.732 32.6096 123.729 32.6061 123.725C32.6027 123.72 32.6005 123.715 32.5999 123.71C32.5993 123.704 32.6003 123.698 32.6027 123.693C39.9541 108.607 46.7992 94.583 53.1378 81.6226C54.4441 78.9521 55.2167 77.3297 55.4557 76.7555C55.7608 76.0258 56.2439 74.6047 56.9052 72.4922C56.9238 72.7834 56.9806 73.0421 57.0757 73.2683C57.6244 74.5769 58.375 75.7712 59.3274 76.8512C60.3263 77.9823 61.6488 79.2282 62.8999 80.1992C66.8169 83.2426 71.0141 85.7536 75.5123 88.1585C77.887 89.4276 80.4397 90.7605 83.1705 92.1573C83.5348 92.3429 83.7622 92.4392 83.8527 92.4461C83.8612 92.4466 83.8697 92.4446 83.8772 92.4404C83.8846 92.4362 83.8907 92.43 83.8946 92.4226C83.8985 92.4151 83.9001 92.4068 83.8991 92.3986C83.8982 92.3904 83.8947 92.3827 83.8892 92.3765C83.8579 92.3382 83.598 92.1329 83.1096 91.7605C82.8417 91.5564 82.6056 91.3464 82.4014 91.1306C78.7796 87.3023 77.2298 82.7241 77.7518 77.3958C77.8516 76.3773 78.0743 75.3164 78.42 74.2132Z" fill="url(#paint0_linear_137_83)"/>
<path d="M121.831 102.878L121.545 103.016C120.286 103.511 119 103.748 117.688 103.726C115.355 103.685 113.004 103.366 110.635 102.769C107.382 101.95 104.101 100.923 100.791 99.6886C96.4198 98.0586 92.4013 96.4461 88.7354 94.851C88.7223 94.8456 88.7118 94.8354 88.706 94.8224C88.7001 94.8095 88.6995 94.7948 88.7041 94.7814L88.7058 94.7779C88.7113 94.7625 88.7226 94.7497 88.7375 94.7423C88.7524 94.7348 88.7697 94.7333 88.7859 94.7379C92.7905 95.9688 96.6182 95.5767 100.269 93.5616C102.764 92.1846 104.716 90.2774 106.123 87.8401C106.182 87.7392 106.191 87.644 106.151 87.5547C106.273 87.499 106.361 87.4874 106.413 87.5199C106.913 87.8331 108.037 88.5274 109.786 89.6028C113.159 91.6794 116.054 94.0343 118.469 96.6677C119.361 97.6399 120.132 98.7669 120.781 100.049C120.947 100.377 121.124 100.846 121.312 101.457C121.461 101.939 121.634 102.413 121.831 102.878Z" fill="#6822BC"/>
<path d="M153.355 95.8934C153.408 96.0036 153.479 96.0772 153.569 96.1144C156.576 97.3533 158.81 100.134 159.308 103.379C160.019 108.029 157.707 112.238 153.353 114.067C153.297 114.091 153.246 114.127 153.205 114.173L153.137 114.246C152.812 114.243 152.486 114.279 152.159 114.354C151.55 114.495 151.23 114.567 151.199 114.572C148.598 114.927 146.246 114.314 144.144 112.732C144.105 112.702 144.056 112.686 144.007 112.686H143.728C143.785 112.559 143.766 112.452 143.669 112.364C139.653 108.739 139.227 102.826 142.789 98.7141C142.933 98.5482 143.309 98.181 143.918 97.6126C144.256 97.3771 144.595 97.1468 144.936 96.9218C147.315 95.3504 150.313 95.119 153.017 95.9682C153.07 95.984 153.126 95.9822 153.177 95.963L153.355 95.8934ZM149.847 101.485C148.908 101.518 148.02 101.931 147.379 102.633C146.739 103.336 146.398 104.27 146.431 105.231C146.448 105.707 146.556 106.175 146.749 106.608C146.943 107.041 147.218 107.431 147.558 107.756C147.899 108.081 148.299 108.334 148.735 108.501C149.171 108.668 149.635 108.746 150.1 108.73C151.04 108.697 151.927 108.284 152.568 107.581C153.209 106.879 153.55 105.944 153.516 104.984C153.5 104.508 153.392 104.04 153.198 103.607C153.005 103.173 152.73 102.783 152.389 102.458C152.048 102.133 151.649 101.88 151.212 101.713C150.776 101.546 150.312 101.469 149.847 101.485Z" fill="#6822BC"/>
<path d="M149.847 101.483C150.312 101.466 150.776 101.544 151.212 101.711C151.649 101.878 152.048 102.131 152.389 102.456C152.73 102.781 153.005 103.171 153.198 103.604C153.391 104.038 153.5 104.506 153.516 104.981C153.55 105.942 153.209 106.876 152.568 107.579C151.927 108.282 151.04 108.695 150.1 108.727C149.635 108.744 149.171 108.666 148.735 108.499C148.299 108.332 147.899 108.079 147.558 107.754C147.218 107.429 146.943 107.039 146.749 106.606C146.556 106.172 146.448 105.704 146.431 105.229C146.398 104.268 146.739 103.334 147.379 102.631C148.02 101.929 148.908 101.515 149.847 101.483Z" fill="#9526CC"/>
<path d="M143.728 112.684H144.007C144.057 112.684 144.105 112.7 144.144 112.731C146.246 114.312 148.598 114.925 151.199 114.57C151.23 114.565 151.55 114.493 152.159 114.352C152.486 114.277 152.812 114.241 153.137 114.244L144.781 149.786L135.392 149.738C135.342 149.737 135.293 149.728 135.247 149.712L134.977 149.616C135.279 148.133 135.605 146.658 135.955 145.191C138.456 134.69 140.955 124.188 143.45 113.686C143.532 113.34 143.625 113.006 143.728 112.684Z" fill="#9526CC"/>
<path d="M103.58 131.011C103.595 131.366 103.579 131.661 103.532 131.894C103.325 132.893 103.042 133.724 102.682 134.389C102.585 134.569 102.334 134.904 101.931 135.395C101.612 135.382 101.286 135.441 100.953 135.572C91.3694 139.336 83.7987 142.336 78.2408 144.574C77.2547 144.972 76.257 145.373 75.2478 145.776C72.6736 146.804 69.8064 147.918 66.6464 149.117C66.2612 149.264 65.6429 149.462 64.7914 149.713C64.6464 149.755 64.4353 149.687 64.158 149.507C64.1072 149.474 64.0687 149.426 64.0484 149.37C63.8883 148.914 63.6029 148.557 63.8639 147.816C64.0344 147.333 64.1603 146.916 64.2415 146.565C64.2512 146.525 64.2706 146.489 64.2979 146.459C64.3253 146.428 64.3597 146.406 64.3981 146.392C64.8703 146.235 65.4892 146.009 66.2548 145.715C67.9938 145.048 71.2264 143.761 75.9525 141.854C84.6601 138.337 90.6461 136.025 101.108 131.854C101.111 131.851 101.68 131.609 102.815 131.128C103.122 130.997 103.377 130.958 103.58 131.011Z" fill="#EEEBE4"/>
<path d="M103.629 136.566C103.519 136.88 103.491 137.214 103.544 137.571C103.553 137.629 103.549 137.688 103.534 137.744C103.518 137.801 103.491 137.854 103.453 137.899C103.303 138.083 103.206 138.31 103.165 138.582C103.127 138.825 103.027 139.082 102.864 139.352C102.586 139.808 102.261 140.249 101.889 140.673C101.63 140.76 101.362 140.869 101.085 140.999C100.694 141.181 100.43 141.3 100.292 141.355C94.7981 143.577 91.3718 145.023 86.9972 146.71C83.9891 147.87 80.7322 149.18 77.2264 150.641C74.1603 151.918 70.4086 153.265 67.9829 154.246C67.031 154.631 66.0026 154.881 64.8837 155.309C64.8212 155.332 64.7541 155.336 64.6906 155.321L63.4829 155.045C63.4441 155.036 63.41 155.012 63.3872 154.98C63.3644 154.947 63.3545 154.907 63.3594 154.867C63.3606 154.856 63.4116 154.759 63.5125 154.577C63.6709 154.29 63.5143 153.531 63.422 153.294C63.4086 153.259 63.4035 153.221 63.4074 153.184C63.4112 153.147 63.4238 153.111 63.4442 153.079C63.4645 153.048 63.4921 153.021 63.5245 153.003C63.5569 152.984 63.5934 152.973 63.6308 152.971C64.5409 152.924 64.0224 152.234 64.5061 152.043C67.1737 150.992 69.7926 150.004 71.5362 149.302C79.7902 145.985 89.5778 142.073 100.899 137.569C101.368 137.382 102.147 137.027 103.238 136.504C103.282 136.482 103.331 136.473 103.38 136.478C103.469 136.485 103.552 136.514 103.629 136.566Z" fill="#EEEBE4"/>
<path d="M103.791 141.555L103.481 143.397C103.464 143.501 103.431 143.601 103.384 143.693C102.965 144.536 102.587 145.545 101.927 146.23C101.403 146.286 100.974 146.385 100.641 146.528C97.9106 147.696 96.1264 148.451 95.2889 148.792C83.528 153.589 73.9875 157.427 66.6674 160.308C65.8194 160.641 65.2538 160.851 64.9708 160.94C64.9038 160.962 64.8341 160.974 64.7637 160.978C64.2173 161.007 63.7434 160.807 63.342 160.378C63.3297 160.365 63.3207 160.349 63.3159 160.332C63.311 160.314 63.3105 160.296 63.3142 160.278L63.4969 159.49C63.4985 159.482 63.4981 159.473 63.4957 159.465C63.4932 159.457 63.4889 159.45 63.483 159.443L63.3107 159.271C63.2972 159.258 63.2869 159.242 63.2803 159.224C63.2738 159.207 63.2713 159.188 63.273 159.169C63.2746 159.15 63.2804 159.132 63.29 159.116C63.2995 159.099 63.3125 159.085 63.3281 159.074C63.6222 158.871 64.0189 158.671 64.1407 158.272C64.1493 158.242 64.1484 158.21 64.1381 158.181C64.1277 158.152 64.1086 158.127 64.0833 158.11C64.0705 158.102 64.0607 158.095 64.0537 158.088C64.0431 158.078 64.0345 158.067 64.0284 158.054C64.0223 158.041 64.0188 158.028 64.0182 158.014C64.0175 158 64.0197 157.986 64.0246 157.973C64.0296 157.96 64.0371 157.948 64.0468 157.938C64.393 157.576 65.2474 157.355 66.1784 156.993C67.067 156.647 73.0368 154.256 84.0877 149.82C87.3092 148.528 91.8678 146.674 97.7633 144.259C99.964 143.357 101.973 142.456 103.791 141.555Z" fill="#EEEBE4"/>
<path d="M103.38 147L103.499 147.995C103.5 148.008 103.499 148.021 103.497 148.034C103.424 148.491 103.186 148.733 102.785 148.759C102.769 148.76 102.754 148.765 102.74 148.772C102.726 148.78 102.715 148.791 102.705 148.804C102.696 148.816 102.69 148.831 102.687 148.847C102.685 148.862 102.685 148.878 102.689 148.893C102.769 149.203 102.834 149.497 102.721 149.791C102.449 150.491 102.235 150.956 102.079 151.187C101.971 151.346 101.744 151.545 101.398 151.784C100.329 152.187 98.3049 153.013 95.327 154.262C93.0602 155.212 88.3665 157.136 81.2459 160.033C76.6798 161.894 71.6979 163.794 66.6533 165.931C66.0268 166.195 65.5935 166.327 64.7792 166.585C64.7136 166.605 64.6436 166.605 64.5791 166.583C64.1579 166.445 63.7641 166.221 63.3975 165.91C63.3789 165.894 63.3638 165.875 63.3531 165.853C63.3425 165.831 63.3364 165.807 63.3355 165.782C63.3345 165.758 63.3386 165.733 63.3474 165.71C63.3563 165.687 63.3698 165.666 63.3871 165.649L63.7264 165.311C63.7494 165.288 63.7668 165.26 63.7771 165.229C63.7875 165.198 63.7907 165.165 63.7863 165.132C63.7819 165.1 63.7702 165.069 63.7519 165.042C63.7337 165.014 63.7095 164.992 63.6812 164.975C63.4712 164.852 63.3836 164.699 63.4184 164.514C63.4239 164.486 63.4359 164.458 63.4537 164.434C63.4715 164.411 63.4945 164.391 63.5211 164.377C63.8047 164.231 63.9648 164.295 64.2415 163.944C64.2518 163.93 64.2587 163.915 64.2614 163.898C64.2642 163.881 64.2627 163.864 64.2572 163.848C64.2517 163.832 64.2422 163.818 64.2297 163.807C64.2173 163.795 64.2022 163.787 64.1858 163.783L64.0448 163.752C64.0162 163.745 63.9904 163.729 63.9712 163.707C63.952 163.684 63.9404 163.657 63.9379 163.627C63.9354 163.598 63.9422 163.568 63.9573 163.543C63.9724 163.518 63.9951 163.498 64.0222 163.486C64.1893 163.415 64.5883 163.251 65.2194 162.993C73.3655 159.665 80.2088 156.887 85.7493 154.658C89.7012 153.068 93.7121 151.378 97.6326 149.734C99.2486 149.056 100.623 148.447 101.757 147.905C102.15 147.717 102.691 147.415 103.38 147Z" fill="#EEEBE4"/>
<path d="M134.977 149.617L135.247 149.713C135.293 149.729 135.342 149.738 135.392 149.739L144.781 149.788C144.786 149.804 144.799 149.821 144.821 149.838C144.84 149.854 144.864 149.863 144.889 149.864C146.594 149.911 148.694 149.922 151.187 149.899C151.524 149.897 152.075 149.914 152.84 149.951C156.844 150.144 159.325 152.986 159.395 156.919C159.413 157.969 159.425 159.013 159.43 160.053C159.446 160.577 159.473 161.097 159.511 161.614C159.595 162.712 159.567 163.662 158.145 163.641C156.409 163.614 152.386 163.618 146.076 163.651C143.352 163.666 140.979 163.707 138.957 163.773C135.63 163.879 131.433 163.853 127.117 163.968C126.089 163.996 124.517 164.013 122.4 164.018C117.658 164.031 111.096 164.239 106.203 164.225C104.811 164.222 103.539 163.947 102.9 162.581L102.797 161.951L103.088 160.387C103.092 160.367 103.101 160.349 103.114 160.334C103.127 160.319 103.144 160.308 103.163 160.302C103.221 160.283 103.268 160.287 103.304 160.314C103.342 160.342 103.387 160.356 103.434 160.354C103.481 160.352 103.526 160.333 103.564 160.301C103.601 160.269 103.63 160.225 103.645 160.175C103.66 160.125 103.661 160.071 103.648 160.021C103.531 159.578 103.61 159.261 103.885 159.07C103.932 159.036 103.966 158.987 103.98 158.931C103.995 158.875 103.988 158.815 103.963 158.764C103.937 158.712 103.894 158.672 103.841 158.65C103.788 158.629 103.729 158.628 103.674 158.647C103.495 158.712 103.325 158.718 103.165 158.666L103.805 158.398C103.834 158.386 103.858 158.365 103.875 158.339C103.891 158.312 103.898 158.281 103.896 158.25C103.893 158.218 103.88 158.189 103.86 158.166C103.839 158.142 103.811 158.126 103.781 158.119L103.232 157.999C103.535 156.442 103.981 155.426 104.816 154.136C105.883 152.492 106.878 151.19 108.879 150.668C109.927 150.396 110.877 150.19 111.731 150.05C112.235 149.969 113.025 149.92 114.101 149.903C114.894 149.89 115.688 149.874 116.483 149.854C117.25 149.85 118.021 149.833 118.796 149.802C119.753 149.762 120.523 149.741 121.105 149.739C125.618 149.725 130.131 149.721 134.643 149.727C134.821 149.727 134.932 149.69 134.977 149.617Z" fill="#6822BC"/>
<path d="M103.7 152.723C103.722 153.134 103.796 153.586 103.921 154.076C104.001 154.391 103.919 154.665 103.673 154.898C103.637 154.932 103.592 154.954 103.544 154.96C103.438 154.976 103.358 155.001 103.302 155.037C103.267 155.06 103.239 155.13 103.218 155.246C103.06 156.118 102.588 156.725 101.844 157.191C101.657 157.308 101.474 157.433 101.294 157.564C101.109 157.654 100.902 157.734 100.671 157.804C100.39 157.89 100.18 157.961 100.041 158.018C93.6582 160.616 88.0997 162.847 83.3654 164.709C80.0974 165.994 77.3979 167.08 75.2669 167.966C71.2228 169.649 68.528 170.75 67.1823 171.267C66.4503 171.548 66.0135 171.713 65.872 171.761C65.3522 171.945 64.9787 172.018 64.7513 171.982C64.3441 171.918 63.9915 171.773 63.6933 171.547C63.6721 171.531 63.6558 171.509 63.6466 171.484C63.6373 171.459 63.6354 171.432 63.6411 171.406C63.7026 171.138 63.7681 170.96 63.8378 170.872C63.853 170.853 63.8607 170.83 63.8594 170.806C63.8581 170.781 63.8479 170.759 63.8308 170.742L63.394 170.303C63.3766 170.286 63.3642 170.264 63.3582 170.24C63.3522 170.216 63.3528 170.19 63.36 170.167C63.3671 170.143 63.3805 170.122 63.3987 170.105C63.417 170.088 63.4394 170.077 63.4636 170.072C63.8383 169.996 64.1927 169.746 64.5268 169.322C64.5527 169.288 64.5703 169.249 64.5782 169.207C64.586 169.166 64.5839 169.123 64.5721 169.082C64.5129 168.876 64.593 168.742 64.8122 168.678C64.818 168.675 64.8754 168.653 64.9845 168.61C68.3186 167.261 71.4531 165.984 74.3881 164.778C75.2982 164.402 76.3614 164.046 77.1201 163.736C83.7418 161.031 90.193 158.402 96.4737 155.85C97.9337 155.256 99.5241 154.557 101.49 153.648C102.219 153.312 102.956 153.003 103.7 152.723Z" fill="#EEEBE4"/>
<path d="M102.797 161.953C102.373 162.062 102.007 162.285 101.699 162.623C101.694 162.629 101.69 162.637 101.688 162.645C101.687 162.654 101.688 162.663 101.692 162.67C101.695 162.678 101.701 162.684 101.709 162.688C101.716 162.692 101.724 162.693 101.732 162.692L102.9 162.583C103.539 163.949 104.811 164.224 106.203 164.227C111.096 164.241 117.658 164.032 122.4 164.02C124.517 164.014 126.089 163.997 127.117 163.97C131.433 163.855 135.63 163.881 138.957 163.775C140.979 163.709 143.352 163.668 146.076 163.653C152.386 163.619 156.409 163.616 158.145 163.642C159.567 163.663 159.595 162.713 159.511 161.615C159.473 161.099 159.446 160.579 159.43 160.054C160.942 160.115 162.443 160.222 163.933 160.376C165.91 160.58 175.054 161.532 175.687 163.595C175.954 164.465 175.242 164.944 174.515 165.285C173.875 165.586 173.196 165.831 172.477 166.023C171.231 166.354 169.226 166.74 166.461 167.182C160.67 168.108 154.829 168.854 148.446 169.359C142.171 169.854 136.012 170.193 129.968 170.375C128.182 170.428 126.549 170.46 125.067 170.469C122.779 170.483 120.855 170.591 118.533 170.605C115.381 170.626 113.064 170.64 111.58 170.648C110.475 170.655 109.733 170.833 108.656 171.335C105.345 172.877 101.896 173.839 97.9807 174.887C97.5527 175.002 95.2267 175.574 91.0029 176.603C87.7442 177.396 84.0551 177.997 79.9357 178.404C75.6074 178.832 71.401 179.007 67.3164 178.929C65.9185 178.904 64.636 178.778 63.469 178.552C62.6604 178.396 61.4255 178.042 59.7642 177.489C58.1981 176.966 56.6651 176.44 55.1651 175.91C46.5968 172.885 41.0336 170.887 38.4756 169.917C36.2796 169.085 33.3974 167.966 29.829 166.559C28.0976 165.875 26.4131 165.231 25.0193 164.104C23.9909 163.274 23.9891 162.088 25.0872 161.281C25.5141 160.966 25.9885 160.714 26.5106 160.526C28.1242 159.943 29.887 159.514 31.7988 159.238C31.8778 159.227 31.9587 159.233 32.0354 159.257C32.3185 159.348 32.6062 159.482 32.8985 159.661C35.3997 161.184 37.7604 162.574 39.9808 163.83C40.2384 163.975 40.7569 164.284 41.5365 164.756C42.6589 165.436 43.9901 165.993 45.1298 166.644C46.461 167.403 49.5619 169.058 51.7127 170.356C52.7359 170.975 53.7782 171.447 54.9319 172.113C55.6361 172.519 57.1239 173.356 59.3953 174.623C60.6552 175.326 62.1204 176.269 63.6621 176.406C63.6972 176.409 63.7323 176.404 63.7646 176.391C63.7969 176.378 63.8256 176.357 63.8483 176.331C64.1047 176.037 64.2427 175.805 64.2624 175.637C64.3425 174.948 64.6853 174.212 65.3779 173.947C67.9904 172.945 70.5895 171.909 73.1753 170.838C73.8668 170.551 80.2333 167.992 92.2749 163.159C94.5138 162.261 96.7975 161.343 99.1257 160.406C99.6188 160.209 100.29 159.916 101.141 159.527C101.817 159.22 102.492 158.933 103.165 158.667C103.325 158.72 103.495 158.713 103.674 158.648C103.729 158.629 103.788 158.63 103.841 158.652C103.894 158.673 103.937 158.714 103.963 158.765C103.988 158.817 103.995 158.876 103.98 158.932C103.966 158.989 103.932 159.038 103.885 159.071C103.61 159.263 103.531 159.58 103.648 160.023C103.661 160.073 103.66 160.126 103.645 160.176C103.63 160.227 103.601 160.271 103.564 160.303C103.526 160.335 103.481 160.353 103.434 160.355C103.387 160.358 103.342 160.344 103.304 160.315C103.268 160.289 103.221 160.285 103.163 160.303C103.144 160.31 103.127 160.321 103.114 160.336C103.101 160.351 103.092 160.369 103.088 160.388L102.797 161.953Z" fill="#EEEBE4"/>
<path d="M102.797 161.951L102.9 162.581L101.732 162.691C101.724 162.692 101.716 162.69 101.709 162.686C101.701 162.682 101.695 162.676 101.692 162.669C101.688 162.661 101.687 162.652 101.688 162.644C101.69 162.635 101.693 162.627 101.699 162.621C102.007 162.284 102.373 162.06 102.797 161.951Z" fill="#FFD200"/>
<defs>
<linearGradient id="paint0_linear_137_83" x1="77.0726" y1="72.4922" x2="62.123" y2="134.756" gradientUnits="userSpaceOnUse">
<stop stop-color="#FFF047"/>
<stop offset="1" stop-color="#FFFEF8"/>
</linearGradient>
</defs>
</svg>
