<svg width="880" height="320" viewBox="0 0 880 320" fill="none" xmlns="http://www.w3.org/2000/svg">
<path d="M825.239 34.1385C824.616 33.8054 824 33.4701 823.392 33.1326C822.666 32.73 822.039 32.4229 821.511 32.2112C817.633 30.6496 813.672 29.9146 809.629 30.0064C806.22 30.0841 802.746 30.6214 799.648 31.7871C799.615 31.8 799.586 31.8224 799.566 31.8513C799.546 31.8802 799.535 31.9144 799.535 31.9492C799.533 32.1476 799.567 32.3755 799.635 32.6331C803.788 48.2775 806.288 57.5941 807.135 60.5826C807.24 60.9527 807.338 61.3153 807.43 61.6706C807.436 61.6914 807.446 61.7108 807.459 61.7273C807.473 61.7439 807.49 61.7573 807.51 61.7666C807.529 61.7759 807.55 61.7808 807.572 61.7811C807.593 61.7814 807.615 61.777 807.634 61.7683C821.713 55.464 829.519 51.9677 831.052 51.2794C831.462 51.0959 831.81 50.9775 832.095 50.9242C834.299 52.3674 836.461 53.7743 838.583 55.145C838.674 55.2057 838.727 55.3034 838.74 55.4381C838.384 55.3908 838.011 55.4714 837.623 55.6801C837.164 55.9244 836.928 56.0495 836.915 56.0554C819.45 63.8991 808.079 69.0007 802.804 71.3601C802.786 71.3682 802.767 71.3724 802.748 71.3723C802.729 71.3722 802.71 71.3679 802.693 71.3596C802.675 71.3513 802.66 71.3393 802.648 71.3245C802.635 71.3096 802.627 71.2922 802.622 71.2735L792.945 35.0577C792.937 35.0253 792.921 34.9952 792.899 34.9699C792.877 34.9445 792.849 34.9245 792.818 34.9112C792.787 34.898 792.754 34.8919 792.72 34.8934C792.686 34.8949 792.653 34.904 792.623 34.92C791.621 35.4544 790.574 36.1027 789.483 36.865C785.921 39.3518 782.804 42.3219 780.133 45.7752C775.023 52.3785 771.727 60.2052 770.912 68.5203C769.99 77.939 772.584 87.4931 779.074 94.4894C780.227 95.7327 781.497 96.8192 782.882 97.7488C784.311 98.7065 785.754 99.5584 787.211 100.304C787.618 100.513 788.307 100.801 789.279 101.168C789.977 101.432 790.673 101.708 791.364 101.999C789.019 101.306 786.81 100.317 784.737 99.0322C783.287 98.1352 782.346 97.5416 781.914 97.2515C777.579 94.3473 773.944 91.9478 771.01 90.0531C767.906 88.0489 765.756 86.488 764.56 85.3705C758.957 80.1393 755.799 73.3074 754.968 65.8248C754.798 64.2899 754.739 62.3804 754.792 60.0964C754.837 58.2002 755.039 56.3011 755.399 54.399C757.713 42.1805 765.186 31.363 775.793 24.8974C776.258 24.6132 776.624 24.2646 777.268 24.6954C778.247 25.3511 780.948 27.0941 785.372 29.9243C785.393 29.9377 785.418 29.9444 785.443 29.9435C785.468 29.9426 785.492 29.9341 785.512 29.9193C785.533 29.9044 785.548 29.8837 785.556 29.8601C785.564 29.8364 785.565 29.8108 785.559 29.7866L783.402 21.7201C783.379 21.6332 783.39 21.5409 783.433 21.4622C783.476 21.3836 783.548 21.3249 783.633 21.2983C787.358 20.1111 791.099 19.5309 794.855 19.5575C795.758 19.5634 797.307 19.7544 799.501 20.1304C803.033 20.7343 806.357 22.0332 809.473 24.0271C814.719 27.3827 819.974 30.7532 825.239 34.1385Z" fill="#6822BC"/>
<path d="M825.241 34.1377C830.684 37.5378 834.552 42.222 836.845 48.1902C836.891 48.3093 836.89 48.4413 836.842 48.5596C836.794 48.6778 836.703 48.7735 836.587 48.8275L832.097 50.9235C831.811 50.9767 831.463 51.0952 831.053 51.2787C829.521 51.967 821.715 55.4633 807.636 61.7676C807.616 61.7763 807.595 61.7807 807.573 61.7804C807.552 61.7801 807.531 61.7752 807.511 61.7659C807.492 61.7566 807.474 61.7432 807.461 61.7266C807.447 61.71 807.437 61.6907 807.431 61.6699C807.34 61.3146 807.241 60.952 807.136 60.5819C806.289 57.5933 803.789 48.2768 799.636 32.6323C799.568 32.3748 799.535 32.1468 799.536 31.9485C799.536 31.9136 799.547 31.8795 799.567 31.8506C799.588 31.8217 799.616 31.7993 799.649 31.7864C802.748 30.6207 806.221 30.0834 809.63 30.0057C813.674 29.9139 817.634 30.6488 821.512 32.2105C822.041 32.4222 822.668 32.7293 823.393 33.1319C824.002 33.4694 824.618 33.8047 825.241 34.1377Z" fill="#FAF6F3"/>
<path d="M838.739 55.4376C838.966 56.3894 839.089 57.5033 839.108 58.7792C839.147 61.4777 839.117 63.6373 839.019 65.2582C838.908 67.1218 838.445 69.4731 837.629 72.3122C833.973 85.0237 824.572 95.9455 812.206 100.817C809.104 102.041 806.152 102.77 803.349 103.004C801.78 103.134 799.78 103.168 797.351 103.104C795.553 103.057 793.557 102.688 791.363 101.998C790.672 101.708 789.977 101.431 789.278 101.168C788.306 100.801 787.617 100.513 787.21 100.304C785.753 99.558 784.31 98.7062 782.881 97.7485C781.496 96.8189 780.226 95.7324 779.073 94.489C772.583 87.4927 769.989 77.9386 770.911 68.5199C771.726 60.2047 775.022 52.378 780.132 45.7747C782.803 42.3213 785.92 39.3512 789.482 36.8644C790.573 36.1021 791.62 35.4538 792.622 34.9194C792.652 34.9034 792.685 34.8943 792.719 34.8928C792.753 34.8913 792.787 34.8974 792.818 34.9106C792.848 34.9239 792.876 34.9439 792.898 34.9693C792.92 34.9946 792.936 35.0247 792.944 35.0571L802.621 71.2731C802.626 71.2917 802.634 71.3091 802.647 71.324C802.659 71.3389 802.674 71.3509 802.692 71.3591C802.709 71.3674 802.728 71.3717 802.747 71.3718C802.766 71.3719 802.786 71.3678 802.803 71.3597C808.078 69.0002 819.449 63.8986 836.914 56.0549C836.927 56.0489 837.163 55.9239 837.622 55.6796C838.01 55.4709 838.383 55.3902 838.739 55.4376Z" fill="#FAF6F3"/>
<path d="M548.578 117.309C548.578 117.328 548.583 117.346 548.591 117.362C548.6 117.378 548.613 117.392 548.628 117.403C548.643 117.414 548.661 117.42 548.679 117.423C548.698 117.425 548.717 117.424 548.735 117.417C549.914 116.994 551.091 116.489 552.266 115.902C553.56 115.255 554.862 114.533 556.173 113.735C563.951 109.008 570.983 103.562 577.765 97.165C585.693 89.6897 593.04 81.6114 599.808 72.9302C600.917 71.5085 601.451 70.8927 602.106 69.9699C602.915 68.8326 604.133 68.0999 605.513 67.9743C609.102 67.6481 611.69 71.1439 610.388 74.4914C610.217 74.931 609.843 75.5252 609.265 76.2742C608.505 77.2568 608.073 77.8162 607.968 77.9523C603.239 84.1274 597.763 90.4555 591.541 96.9365C581.545 107.347 570.746 116.458 558.412 123.425C555.818 124.89 553.345 125.963 550.994 126.644C549.112 127.19 546.971 127.392 545.084 126.886C541.448 125.913 539.48 122.837 539.145 119.207C538.786 115.335 539.751 111.366 540.551 107.548C540.726 106.72 540.742 105.894 540.6 105.071C540.424 104.054 539.913 103.354 538.876 103.204C537.055 102.942 535.01 103.696 533.412 104.546C531.823 105.39 530.301 106.427 528.847 107.658C525.734 110.292 523.335 113.079 520.69 116.589C519.978 117.534 518.587 118.459 517.288 118.415C516.876 118.401 516.476 118.501 516.005 118.387C513.273 117.731 511.671 115.223 512.299 112.517C512.446 111.888 513.013 110.934 514 109.653C516.205 106.792 518.498 104.244 520.882 102.007C524.295 98.803 528.256 96.0347 532.7 94.5519C536.962 93.1302 541.794 93.1738 545.519 95.9527C549.616 99.0054 550.884 104.354 549.921 109.241C549.555 111.099 549.12 112.845 548.864 114.656C548.686 115.91 548.553 116.444 548.578 117.309Z" fill="#FF6100"/>
<path d="M675.384 13.9958C677.251 14.8114 678.588 15.9845 679.395 17.5151C680.643 19.8864 681.082 22.5027 680.71 25.364C680.593 26.2669 680.263 27.511 679.719 29.0963C679.191 30.6417 678.183 32.1382 677.545 33.4127C677.529 33.4438 677.522 33.4786 677.523 33.5136C677.524 33.5486 677.534 33.5827 677.553 33.6126C677.571 33.6424 677.597 33.6671 677.627 33.6842C677.658 33.7013 677.692 33.7103 677.727 33.7102C680.443 33.7213 682.656 34.0943 684.781 35.9061C685.151 36.2199 685.466 36.5848 685.727 37.0008C689.347 42.7625 687.49 50.5426 684.004 55.8936C681.584 59.6415 678.47 62.693 674.66 65.0481C667.653 69.3807 660.645 73.7118 653.637 78.0415C653.63 78.0459 653.352 78.2332 652.804 78.6032C652.491 78.8134 652.16 78.9962 651.812 79.1516C651.656 78.6025 651.52 78.0844 651.403 77.5974C647.328 60.5822 643.629 45.0354 640.305 30.957C640.197 30.4996 640.29 30.1799 640.585 29.9978C644.269 27.7168 650.317 23.9711 658.73 18.7607C663.145 16.0252 667.596 13.0655 673.015 13.3897C673.857 13.44 674.647 13.6421 675.384 13.9958ZM656.256 32.7066C656.017 32.8236 655.917 32.9583 655.954 33.1107C656.543 35.5635 657.148 38.0991 657.768 40.7176C657.776 40.7505 657.791 40.7811 657.813 40.8069C657.835 40.8327 657.863 40.8529 657.894 40.8659C657.925 40.879 657.958 40.8844 657.992 40.8817C658.025 40.8791 658.057 40.8685 658.086 40.8508L663.449 37.5692C665.599 36.2392 667.58 34.1987 667.525 31.4832C667.482 29.3228 666.256 27.8197 663.951 28.2615C663.492 28.3488 662.76 28.6922 661.755 29.2917C659.894 30.4019 658.061 31.5402 656.256 32.7066ZM660.187 50.5359L662.283 59.566C662.289 59.5911 662.3 59.6145 662.317 59.6341C662.333 59.6538 662.355 59.6693 662.378 59.6793C662.402 59.6892 662.428 59.6934 662.454 59.6915C662.48 59.6896 662.505 59.6816 662.528 59.6682L668.524 55.978C669.075 55.5739 669.597 55.135 670.09 54.6613C671.82 53.0005 672.859 50.2961 671.995 48.0336C671.168 45.8666 669.616 45.2212 667.34 46.0975C666.868 46.2795 666.124 46.6799 665.108 47.2987C662.908 48.6353 661.356 49.5975 660.453 50.1851C660.244 50.3213 660.156 50.4382 660.187 50.5359Z" fill="#FAF6F3"/>
<path d="M690.198 24.4342C690.226 24.4682 690.253 24.4882 690.278 24.4941C690.287 24.497 690.295 24.5024 690.302 24.5097C690.308 24.517 690.312 24.5259 690.313 24.5354C690.315 24.5449 690.313 24.5546 690.31 24.5634C690.306 24.5722 690.299 24.5797 690.291 24.5851L686.589 26.9631C686.558 26.9831 686.534 27.0124 686.52 27.047C686.506 27.0816 686.503 27.1198 686.511 27.1563C687.31 30.5489 688.014 33.505 688.626 36.0243C688.737 36.4802 688.874 36.8051 689.037 36.999C689.774 37.7243 690.592 38.3734 691.491 38.9462L690.938 40.0786C690.923 40.1077 690.919 40.1409 690.925 40.1731C690.931 40.2052 690.948 40.2345 690.973 40.2562C691.376 40.61 691.591 40.7965 691.62 40.8158C693.812 42.3818 695.454 43.5912 696.546 44.4438C697.53 45.212 698.297 46.3126 698.846 47.7454C700.756 52.7212 699.708 58.2743 697.214 62.8992C693.698 60.4672 691.327 58.8079 690.103 57.9212C688.246 56.5757 686.213 55.8992 684.004 55.8918C687.491 50.5408 689.348 42.7608 685.728 36.999C685.467 36.5831 685.152 36.2182 684.781 35.9044C682.656 34.0926 680.444 33.7196 677.728 33.7085C677.693 33.7085 677.658 33.6996 677.628 33.6825C677.597 33.6654 677.571 33.6407 677.553 33.6108C677.535 33.581 677.525 33.5469 677.523 33.5119C677.522 33.4769 677.53 33.4421 677.546 33.411C678.183 32.1365 679.191 30.64 679.72 29.0946C680.263 27.5093 680.594 26.2652 680.71 25.3622C681.082 22.501 680.644 19.8847 679.396 17.5134C678.589 15.9828 677.252 14.8097 675.385 13.9941C676.132 14.2769 677.038 14.8083 678.101 15.5883C682.122 18.5414 686.155 21.49 690.198 24.4342Z" fill="#FF8400"/>
<path fill-rule="evenodd" clip-rule="evenodd" d="M667.341 46.0968C669.616 45.2206 671.167 45.8667 671.995 48.0337C672.859 50.2961 671.82 53.0006 670.09 54.6613C669.721 55.0166 669.334 55.3517 668.931 55.6678L668.524 55.9779L662.527 59.668C662.505 59.6813 662.48 59.6895 662.454 59.6914C662.428 59.6934 662.402 59.6897 662.378 59.6797C662.354 59.6698 662.333 59.6538 662.316 59.6341C662.3 59.6145 662.289 59.5911 662.283 59.5662L660.187 50.5359C660.82 50.9769 661.447 51.4165 662.068 51.8537C663.31 52.728 664.526 53.5942 665.717 54.453C663.931 53.1646 662.088 51.8592 660.187 50.5359C660.156 50.4382 660.245 50.3209 660.454 50.1848C661.357 49.5971 662.908 48.6351 665.108 47.2987C666.124 46.68 666.868 46.2788 667.341 46.0968ZM668.213 55.9779C668.262 55.9813 668.312 55.9814 668.364 55.9815C668.261 55.9814 668.163 55.9761 668.071 55.9627L668.213 55.9779Z" fill="#FF6100"/>
<path fill-rule="evenodd" clip-rule="evenodd" d="M663.952 28.2608C666.256 27.8192 667.482 29.3226 667.524 31.4827C667.58 34.1981 665.599 36.2385 663.449 37.5685L658.085 40.8513C658.057 40.8689 658.025 40.8803 657.992 40.8829C657.958 40.8855 657.925 40.8795 657.894 40.8665C657.863 40.8535 657.835 40.8337 657.813 40.808C657.791 40.7822 657.776 40.7508 657.768 40.7179C657.148 38.0996 656.543 35.5643 655.954 33.1118C655.917 32.9594 656.017 32.8238 656.256 32.7069L657.615 31.8373C658.979 30.9732 660.359 30.1244 661.754 29.2918C662.76 28.6924 663.493 28.3481 663.952 28.2608Z" fill="#FF6100"/>
<path d="M697.213 62.9019C695.477 66.077 693.256 68.8176 690.551 71.1238C689.282 72.2059 687.213 73.6247 684.343 75.3802C677.608 79.5011 670.896 83.6339 664.206 87.7786C664.14 87.8199 664.063 87.8405 663.985 87.8378C663.907 87.835 663.832 87.809 663.769 87.763L651.812 79.1525C652.159 78.9971 652.49 78.8143 652.804 78.6041C653.352 78.2341 653.63 78.0468 653.637 78.0424C660.645 73.7127 667.653 69.3816 674.66 65.049C678.47 62.6939 681.584 59.6425 684.004 55.8945C686.213 55.9019 688.245 56.5784 690.102 57.9239C691.327 58.8106 693.697 60.4699 697.213 62.9019Z" fill="#FF8400"/>
<path d="M690.534 104.03C690.529 104.054 690.521 104.079 690.511 104.105C690.005 105.372 689.131 106.283 687.888 106.838C687.447 107.035 686.777 107.196 686.259 107.156C686.178 107.15 685.939 107.15 685.54 107.157C685.375 107.16 685.212 107.141 685.053 107.103C682.458 106.477 679.983 106.18 677.498 107.232C677.129 107.388 675.576 108.112 672.837 109.404C671.014 110.265 669.065 110.991 666.991 111.583C664.844 112.196 663.001 112.488 661.461 112.459C658.211 112.397 655.358 111.426 652.512 109.831C650.68 108.803 649.203 108.014 648.08 107.463C645.714 106.298 643.196 105.747 640.525 105.807C639.954 105.82 639.314 105.856 638.606 105.915C636.117 106.125 634.298 107.274 632.682 109.085C631.323 110.606 629.649 113.16 628.686 114.52C628.379 114.954 627.988 115.513 627.512 116.197C624.82 120.069 621.55 123.406 617.357 125.276C616.103 125.836 614.81 125.817 613.476 125.219C610.154 123.727 609.835 119.352 612.581 117.134C612.773 116.978 613.147 116.762 613.703 116.486C615.199 115.743 616.481 114.702 617.603 113.414C618.481 112.406 619.17 111.54 619.671 110.817C623.242 105.654 626.509 100.159 632.511 97.6818C634.46 96.8759 636.81 96.4165 639.56 96.3037C644.817 96.0862 649.761 97.323 654.395 100.014C655.724 100.786 657.018 101.482 658.277 102.102C660.201 103.051 661.913 103.121 664.11 102.507C667.181 101.647 669.07 100.672 672.604 98.9831C675.125 97.7777 677.812 97.0416 680.63 97.0102C682.401 96.9892 684.328 97.1957 686.409 97.6294C687.53 97.8632 688.371 98.1998 688.93 98.6394C690.513 99.8832 691.258 101.999 690.582 103.89C690.571 103.922 690.56 103.953 690.551 103.978C690.542 104.004 690.536 104.022 690.534 104.03Z" fill="#FFD700"/>
<path d="M771.018 120.314L769.819 119.848C769.695 119.799 769.563 119.772 769.431 119.767C762.724 119.437 757.978 119.187 755.191 119.017C753.36 118.905 752.281 118.891 751.953 118.975C750.246 119.411 749.307 120.929 748.974 122.634C741.9 158.852 737.638 180.643 736.19 188.008C736.159 188.164 736.151 188.568 736.166 189.221C736.167 189.286 736.187 189.35 736.224 189.404L736.93 190.427L731.867 186.305C731.643 185.551 731.654 184.647 731.9 183.591C732.1 182.73 732.201 182.294 732.203 182.282C734.652 169.772 737.47 155.33 740.658 138.956C740.966 137.372 740.893 136.01 739.326 135.122C738.94 134.902 737.853 134.779 737.541 134.764C733.193 134.542 728.556 134.302 723.63 134.046C721.464 133.932 719.632 133.728 718.399 135.755C717.74 136.84 717.479 138.838 717.251 140.024C716.491 143.943 713.5 159.333 708.277 186.193C708.186 186.659 708.148 187.223 708.161 187.887C708.163 187.963 708.191 188.036 708.239 188.096L709.123 189.181L703.705 184.845C703.642 184.376 703.636 184.012 703.687 183.755C705.23 175.951 706.775 168.018 708.322 159.955C708.925 156.817 709.566 154.129 709.901 151.645C710.12 150.011 709.048 148.451 707.301 148.365C704.148 148.21 699.462 147.969 693.243 147.639C691.411 147.543 690.376 147.514 690.136 147.553C687.557 147.984 687.019 149.951 686.524 152.547C685.757 156.567 683.73 167.034 680.443 183.946C680.229 185.048 680.139 185.841 680.172 186.323C680.202 186.736 680.504 187.218 681.08 187.77C676.327 183.797 671.578 179.845 666.834 175.915C666.338 175.503 665.929 175.005 665.607 174.418C665.498 174.218 665.43 173.952 665.403 173.622C665.386 173.397 665.408 173.124 665.47 172.803C669.036 154.48 671.166 143.469 671.86 139.771C672.241 137.749 672.75 136.173 674.587 135.475C675.01 135.314 675.975 135.274 677.482 135.355C686.007 135.809 690.974 136.072 692.385 136.144C693.116 136.182 693.739 136.411 694.253 136.83C696.538 138.693 698.152 140.011 699.097 140.784C699.293 140.945 699.453 141.064 699.579 141.14C699.605 141.156 699.634 141.165 699.664 141.167C699.694 141.169 699.725 141.164 699.752 141.152C699.78 141.139 699.804 141.121 699.823 141.097C699.842 141.073 699.855 141.046 699.861 141.016C700.814 136.218 701.849 130.894 702.968 125.045C703.257 123.534 704.248 122.321 705.795 121.859C706.176 121.746 706.818 121.72 707.721 121.782C708.152 121.811 713.392 122.095 723.439 122.632C724.397 122.685 725.005 123.227 725.968 124.023C727.113 124.967 728.613 126.171 730.467 127.635C730.482 127.646 730.499 127.655 730.518 127.659C730.537 127.663 730.556 127.663 730.574 127.659C730.593 127.655 730.611 127.647 730.626 127.635C730.641 127.624 730.653 127.609 730.661 127.592C730.758 127.4 730.828 127.19 730.872 126.964C732.282 119.65 733.329 114.307 734.012 110.935C734.285 109.596 734.407 108.824 735.116 108.027C735.413 107.694 735.916 107.31 736.624 106.874C736.712 106.818 736.81 106.778 736.912 106.756C737.749 106.57 738.56 106.781 739.357 106.823C745.484 107.145 750.547 107.42 754.545 107.648C755.238 107.687 755.915 107.98 756.579 108.527C759.532 110.956 762.716 113.573 766.131 116.377C767.741 117.699 769.37 119.011 771.018 120.314Z" fill="#003CA0"/>
<path d="M822.664 123.744L821.767 126.082C821.752 126.12 821.731 126.155 821.705 126.186C821.538 126.379 821.532 126.659 821.427 126.941C816.343 140.584 811.056 154.76 805.566 169.467C805.551 169.507 805.552 169.551 805.569 169.59C805.586 169.629 805.617 169.66 805.657 169.676L816.366 174.097C816.381 174.103 816.397 174.106 816.413 174.106C816.429 174.106 816.445 174.102 816.459 174.095C816.474 174.089 816.487 174.079 816.499 174.067C816.51 174.055 816.518 174.041 816.524 174.026L818.878 167.365C818.889 167.333 818.907 167.303 818.93 167.278C818.954 167.253 818.982 167.233 819.013 167.219C819.044 167.205 819.077 167.198 819.111 167.197C819.145 167.197 819.179 167.203 819.211 167.216L832.134 172.551C832.172 172.567 832.205 172.592 832.23 172.625C832.255 172.658 832.271 172.697 832.276 172.738L833.327 180.84C833.337 180.916 833.367 180.989 833.414 181.05C833.461 181.111 833.523 181.159 833.593 181.188L844.46 185.673C844.479 185.681 844.494 185.694 844.503 185.711C844.528 185.759 844.53 185.816 844.509 185.884C839.835 187.153 835.167 188.43 830.506 189.714C830.231 189.79 829.694 189.501 829.463 189.408C823.71 187.049 820.231 185.618 819.024 185.116C818.988 185.101 818.956 185.077 818.932 185.046C818.908 185.015 818.893 184.978 818.889 184.939L817.823 176.719C817.818 176.675 817.8 176.634 817.772 176.6C817.744 176.566 817.707 176.54 817.665 176.526C817.273 176.388 816.187 175.942 814.407 175.189C813.961 175.001 813.609 174.942 813.35 175.011C809.798 175.975 806.17 176.976 802.467 178.013C802.162 178.099 801.826 178.066 801.457 177.913C800.552 177.536 797.126 176.127 791.179 173.688C791.148 173.676 791.124 173.652 791.11 173.622C791.097 173.592 791.096 173.559 791.108 173.528L808.151 128.016C808.182 127.932 808.232 127.857 808.298 127.796C808.364 127.736 808.444 127.691 808.531 127.667C813.357 126.301 817.961 124.99 822.342 123.733C822.409 123.714 822.516 123.717 822.664 123.744Z" fill="#FFBC00"/>
<path d="M844.51 185.883C844.531 185.815 844.529 185.757 844.504 185.71C844.495 185.692 844.48 185.679 844.461 185.672L833.595 181.187C833.524 181.157 833.462 181.109 833.415 181.048C833.368 180.987 833.338 180.915 833.328 180.838L832.278 172.736C832.272 172.695 832.256 172.656 832.231 172.623C832.206 172.591 832.173 172.565 832.135 172.55L819.212 167.214C819.18 167.201 819.147 167.195 819.113 167.196C819.079 167.196 819.045 167.204 819.014 167.218C818.983 167.232 818.955 167.252 818.932 167.277C818.908 167.302 818.89 167.331 818.879 167.363L816.525 174.024C816.519 174.039 816.511 174.053 816.5 174.066C816.489 174.078 816.475 174.087 816.461 174.094C816.446 174.1 816.43 174.104 816.414 174.104C816.398 174.104 816.382 174.101 816.367 174.095L805.658 169.674C805.619 169.658 805.587 169.627 805.57 169.588C805.553 169.549 805.552 169.505 805.567 169.466C811.057 154.758 816.344 140.583 821.429 126.939C821.533 126.657 821.54 126.378 821.706 126.185C821.733 126.154 821.754 126.118 821.768 126.08L822.666 123.742C822.883 123.742 823.042 123.763 823.143 123.804C827.654 125.703 831.996 127.525 836.166 129.269C836.262 129.308 836.348 129.369 836.417 129.446C836.486 129.523 836.537 129.615 836.566 129.715C836.667 130.063 836.741 130.415 836.788 130.772C836.793 130.807 839.443 148.996 844.739 185.337C844.789 185.684 844.713 185.867 844.51 185.883ZM830.559 158.668C830.501 158.409 830.445 158.068 830.392 157.645C829.325 149.187 828.681 144.078 828.462 142.32C828.427 142.031 828.334 141.843 828.185 141.756C828.147 141.734 828.105 141.72 828.062 141.717C828.019 141.713 827.976 141.719 827.935 141.734C827.894 141.749 827.857 141.773 827.826 141.804C827.796 141.835 827.773 141.872 827.758 141.913C826.599 145.167 825.053 149.577 823.121 155.142C823.094 155.216 823.051 155.38 822.99 155.633C822.976 155.693 822.983 155.757 823.012 155.812C823.04 155.868 823.088 155.911 823.145 155.935L830.299 158.888C830.331 158.902 830.367 158.906 830.402 158.901C830.437 158.895 830.469 158.88 830.496 158.858C830.523 158.835 830.543 158.805 830.554 158.772C830.565 158.738 830.567 158.702 830.559 158.668Z" fill="#FAF6F3"/>
<path d="M771.018 120.313C771.912 121.044 772.253 121.954 772.041 123.044C764.339 162.489 760.093 184.303 759.301 188.488C759.102 189.538 758.622 190.433 757.859 191.173C757.139 191.869 756.268 192.187 755.248 192.13C750.477 191.857 745.025 191.57 738.894 191.269C738.244 191.237 737.589 190.956 736.929 190.426L736.224 189.402C736.187 189.349 736.166 189.285 736.166 189.219C736.151 188.567 736.158 188.163 736.189 188.007C737.638 180.642 741.899 158.851 748.973 122.633C749.307 120.928 750.245 119.41 751.953 118.974C752.281 118.89 753.36 118.904 755.19 119.016C757.977 119.186 762.724 119.436 769.43 119.766C769.563 119.771 769.694 119.799 769.818 119.847L771.018 120.313Z" fill="#FAF6F3"/>
<path d="M731.867 186.303L731.682 186.363C731.646 186.375 731.613 186.395 731.586 186.422C731.56 186.448 731.539 186.481 731.527 186.516C731.174 187.592 730.936 188.25 730.814 188.491C730.337 189.424 729.673 190.067 728.822 190.42C728.324 190.628 727.461 190.701 726.235 190.641C718.176 190.238 713.191 189.985 711.278 189.883C710.402 189.837 709.683 189.603 709.123 189.179L708.239 188.093C708.191 188.034 708.163 187.961 708.161 187.885C708.148 187.221 708.186 186.656 708.277 186.191C713.5 159.331 716.492 143.941 717.251 140.022C717.479 138.836 717.74 136.838 718.4 135.753C719.632 133.726 721.464 133.93 723.63 134.044C728.556 134.3 733.193 134.54 737.541 134.762C737.853 134.777 738.94 134.9 739.327 135.12C740.893 136.008 740.967 137.37 740.658 138.954C737.47 155.328 734.652 169.77 732.203 182.28C732.201 182.291 732.1 182.728 731.901 183.588C731.654 184.645 731.643 185.549 731.867 186.303Z" fill="#FAF6F3"/>
<path d="M442.928 179.581C442.565 177.439 443.439 175.632 445.248 174.514C445.573 174.312 446.299 174.078 447.427 173.811C454.803 172.059 461.63 168.98 468.423 165.621C469.783 164.949 473.224 163.171 478.746 160.288C486.295 156.346 493.746 152.681 501.774 149.557C514.972 144.421 528.661 141.65 542.84 141.243C543.043 141.237 543.373 141.276 543.83 141.361C545.283 141.633 546.508 142.657 547.122 143.95C548.454 146.753 546.772 150.143 543.692 150.678C542.635 150.863 541.551 150.8 540.347 150.865C531.749 151.322 523.483 152.687 515.549 154.959C505.569 157.816 496.124 162.013 486.904 166.793C481.005 169.853 476.751 172.052 474.144 173.392C465.911 177.624 457.518 181.28 448.75 183.279C447.526 183.559 446.382 183.412 445.318 182.838C444.138 182.201 443.156 180.938 442.928 179.581Z" fill="#F8AB01"/>
<path d="M830.559 158.67C830.567 158.704 830.566 158.74 830.555 158.773C830.544 158.807 830.523 158.836 830.497 158.859C830.47 158.882 830.437 158.897 830.402 158.902C830.367 158.907 830.332 158.903 830.299 158.889L823.146 155.936C823.088 155.913 823.041 155.869 823.012 155.814C822.984 155.759 822.976 155.695 822.99 155.634C823.051 155.381 823.095 155.218 823.121 155.144C825.054 149.578 826.599 145.168 827.759 141.915C827.773 141.874 827.796 141.836 827.827 141.805C827.858 141.774 827.894 141.75 827.935 141.735C827.976 141.72 828.02 141.714 828.063 141.718C828.106 141.722 828.148 141.735 828.185 141.757C828.335 141.845 828.427 142.032 828.463 142.321C828.682 144.08 829.325 149.188 830.393 157.646C830.446 158.069 830.501 158.41 830.559 158.67Z" fill="#FFA200"/>
<path d="M703.706 184.844C703.537 185.225 703.39 185.609 703.264 185.998C703.058 186.632 702.919 187.014 702.848 187.144C702.333 188.094 701.606 188.742 700.668 189.089C700.251 189.243 699.267 189.281 697.715 189.203C694.201 189.027 689.275 188.77 682.937 188.43C682.215 188.392 681.596 188.171 681.081 187.768C680.505 187.217 680.202 186.735 680.173 186.322C680.139 185.839 680.23 185.047 680.443 183.944C683.731 167.032 685.758 156.566 686.525 152.545C687.019 149.95 687.557 147.983 690.137 147.552C690.376 147.513 691.412 147.541 693.244 147.638C699.463 147.967 704.149 148.209 707.302 148.363C709.048 148.449 710.121 150.009 709.901 151.643C709.566 154.127 708.926 156.816 708.322 159.953C706.776 168.016 705.231 175.95 703.688 183.754C703.636 184.011 703.642 184.374 703.706 184.844Z" fill="#FAF6F3"/>
<path d="M485.813 191.834C482.774 192.832 479.723 190.723 479.592 187.521C479.498 185.177 480.967 183.398 483.182 182.703C493.841 179.36 504.673 177.146 515.677 176.061C517.332 175.898 519.654 175.752 522.644 175.622C529.915 175.309 537.44 175.842 544.623 177.498C549.966 178.73 549.597 186.257 544.075 186.922C543.643 186.973 542.766 186.852 541.445 186.558C538.472 185.896 535.398 185.463 532.223 185.26C527.311 184.946 522.307 185.02 517.212 185.481C511.793 185.972 506.348 186.789 500.877 187.932C496.211 188.906 491.381 190.147 486.388 191.656C486.099 191.744 485.908 191.803 485.813 191.834Z" fill="#FF8400"/>
<path d="M612.116 140.331C615.357 143.872 617.496 147.827 618.534 152.199C619.469 156.134 619.455 160.066 618.494 163.993C617.554 167.837 615.86 171.396 613.413 174.668C613.391 174.698 613.362 174.723 613.329 174.741C613.296 174.759 613.26 174.77 613.222 174.773C613.148 174.779 613.074 174.8 613 174.837L602.504 164.239C602.464 164.199 602.438 164.147 602.428 164.091C602.418 164.035 602.426 163.978 602.451 163.926C602.715 163.36 603.079 162.747 603.283 162.214C604.354 159.446 604.267 156.599 603.024 153.673C602.541 152.838 602.229 152.315 602.089 152.103C600.887 150.276 598.779 148.504 596.705 147.634C593.871 146.446 590.962 146.398 587.977 147.489C585.885 148.253 583.974 149.429 582.245 151.017C579.222 153.793 576.941 157.312 576.537 161.417C576.12 165.669 577.972 169.475 581.299 172.113C582.345 172.94 583.441 173.537 584.586 173.902C585.006 174.084 585.452 174.225 585.925 174.324C588.594 174.885 591.143 174.632 593.571 173.565C593.68 173.517 593.8 173.502 593.916 173.522C594.032 173.541 594.14 173.594 594.227 173.674L596.085 175.401C596.527 175.949 596.993 176.462 597.485 176.94C598.462 177.889 598.959 178.372 598.975 178.39C600.972 180.52 602.889 182.48 604.725 184.269C604.735 184.279 604.742 184.29 604.747 184.303C604.752 184.316 604.754 184.33 604.753 184.343C604.753 184.357 604.749 184.37 604.742 184.382C604.736 184.395 604.727 184.405 604.716 184.413C601.467 186.89 597.925 188.559 594.089 189.42C587.459 190.906 580.89 189.729 575.027 186.314C574.39 185.943 573.601 185.427 572.659 184.769C567.887 180.961 564.224 176.207 562.494 170.434C560.618 164.171 561.335 157.228 564.076 151.395C566.671 145.874 570.515 141.246 575.607 137.513C580.377 134.018 586.247 131.674 592.074 131.665C593.833 131.66 594.877 131.675 595.204 131.709C600.023 132.205 604.375 133.932 608.258 136.889C609.678 137.971 610.964 139.119 612.116 140.331Z" fill="#FAF6F3"/>
<path d="M613 174.836C613.074 174.799 613.148 174.778 613.222 174.772C613.26 174.769 613.296 174.758 613.329 174.74C613.362 174.722 613.391 174.697 613.413 174.668C615.861 171.395 617.554 167.836 618.495 163.992C619.456 160.065 619.469 156.134 618.535 152.198C617.497 147.827 615.357 143.871 612.116 140.33C613.583 141.591 615.417 143.262 617.617 145.341C622.049 149.53 624.75 154.482 625.721 160.195C626.139 162.66 626.163 165.15 625.795 167.665C625.08 172.53 623.182 176.983 620.103 181.024C620.087 181.044 620.068 181.061 620.046 181.073C620.024 181.085 620 181.093 619.975 181.095C619.95 181.097 619.924 181.094 619.901 181.086C619.877 181.078 619.855 181.066 619.836 181.049L613 174.836Z" fill="#0091FF"/>
<path d="M603.023 153.674C600.548 152.773 598.05 152.711 595.53 153.49C590.924 154.913 586.66 158.825 584.645 163.253C583.026 166.808 582.873 170.371 584.585 173.904C583.441 173.538 582.345 172.942 581.298 172.114C577.971 169.476 576.119 165.671 576.537 161.419C576.941 157.313 579.222 153.794 582.244 151.019C583.974 149.43 585.885 148.254 587.977 147.491C590.962 146.4 593.871 146.448 596.705 147.635C598.779 148.505 600.887 150.277 602.088 152.105C602.229 152.316 602.541 152.839 603.023 153.674Z" fill="#0091FF"/>
<path d="M611.569 190.485C611.564 190.473 611.557 190.461 611.547 190.452C610.147 189.056 607.473 186.493 605.023 184.174L604.716 184.413C601.467 186.889 597.925 188.558 594.089 189.42C587.459 190.905 580.89 189.728 575.027 186.313C574.39 185.942 573.601 185.427 572.659 184.768C575.683 187.492 577.68 189.261 578.651 190.077C582.786 193.548 587.766 195.587 593.591 196.194C594.413 196.278 595.449 196.275 596.7 196.185C602.205 195.781 607.151 193.917 611.538 190.592C611.549 190.584 611.557 190.574 611.564 190.562C611.57 190.55 611.574 190.537 611.574 190.524C611.575 190.511 611.573 190.498 611.569 190.485Z" fill="#0091FF"/>
<path d="M792.299 282.272C790.452 284.433 788.251 286.193 785.696 287.551C782.228 289.187 778.697 289.868 775.102 289.595C770.177 289.218 765.532 287.404 761.443 284.604C751.911 278.081 745.612 267.328 743.339 256.091C742.345 251.175 742.196 246.29 742.891 241.436C743.189 239.356 743.767 237.127 744.626 234.75C746.139 230.566 748.414 227.181 751.453 224.597C753.745 222.648 755.165 221.673 755.712 221.673C755.727 221.675 755.741 221.666 755.756 221.646C755.773 221.624 755.789 221.603 755.801 221.589C755.813 221.574 755.82 221.567 755.821 221.568C756.652 221.175 757.499 220.835 758.363 220.548C761.546 219.533 764.788 219.262 768.089 219.736C769.974 220.006 771.709 220.441 773.294 221.04C784.62 225.326 792.655 235.796 796.473 246.899C798.444 252.631 799.262 258.451 798.927 264.358C798.559 270.828 796.468 277.339 792.299 282.272Z" fill="#FAF6F3"/>
<path d="M683.309 216.326C683.315 216.317 683.328 216.298 683.349 216.27C683.377 216.231 683.412 216.199 683.453 216.177C685.913 214.848 688.223 214.979 690.385 216.57C691.029 217.045 691.559 217.678 691.975 218.468C693.798 221.932 695.987 226.238 698.542 231.386C698.57 231.442 698.611 231.489 698.663 231.523C698.714 231.556 698.774 231.576 698.835 231.58C701.669 231.751 706.306 232.053 712.745 232.485C714.08 232.576 715.052 232.751 715.661 233.012C718.042 234.035 719.496 236.398 719.343 239.044C719.174 241.913 717.011 244.053 714.222 244.584C713.794 244.665 712.901 244.66 711.543 244.566C704.155 244.056 699.088 243.723 696.341 243.569C694.474 243.463 693.189 243.264 692.486 242.974C691.118 242.409 690.068 241.408 689.336 239.972C688.848 239.012 688.11 237.553 687.122 235.596C687.117 235.586 687.109 235.577 687.1 235.571C687.09 235.565 687.079 235.562 687.067 235.562C687.056 235.563 687.045 235.566 687.035 235.573C687.025 235.579 687.018 235.588 687.013 235.598C684.068 242.287 682.025 246.935 680.884 249.542C679.573 252.535 678.974 254.289 676.442 255.339C674.092 256.314 671.318 255.639 669.633 253.77C669.162 253.246 668.567 252.114 667.847 250.375C664.849 243.13 660.844 233.548 655.834 221.628C655.83 221.617 655.823 221.608 655.813 221.601C655.804 221.594 655.793 221.59 655.781 221.589C655.77 221.588 655.758 221.591 655.748 221.596C655.738 221.601 655.729 221.609 655.723 221.619C654.447 223.686 651.623 228.265 647.252 235.356C646.321 236.868 645.617 237.816 645.14 238.201C643.348 239.642 640.872 240.037 638.729 239.042C635.566 237.577 634.336 233.971 635.828 230.829C635.914 230.648 636.359 229.908 637.163 228.607C646.113 214.12 650.638 206.791 650.737 206.621C651.657 205.047 652.428 204.02 653.051 203.539C655.601 201.574 659.192 201.86 661.333 204.207C661.774 204.69 662.278 205.602 662.845 206.943C665.633 213.53 668.373 220.171 672.313 229.555C672.851 230.834 673.512 232.623 674.203 234.155C674.212 234.173 674.225 234.188 674.241 234.199C674.258 234.209 674.277 234.215 674.297 234.215C674.316 234.215 674.335 234.209 674.351 234.199C674.367 234.188 674.38 234.173 674.388 234.155C675.981 230.614 678.179 225.627 680.984 219.192C681.5 218.005 682.225 217.099 683.158 216.472C683.217 216.433 683.268 216.383 683.309 216.326Z" fill="#FF8400"/>
<path d="M497.057 216.34C496.511 216.711 495.436 216.914 494.532 216.884C493.019 216.837 491.568 215.923 490.809 214.705C489.741 212.992 489.817 210.864 491.021 209.245C491.305 208.864 491.893 208.365 492.785 207.749C495.707 205.731 498.679 204.162 501.702 203.042C507.969 200.719 514.044 200.763 519.926 203.175C522.84 204.37 525.548 206.111 528.033 208.111C531.154 210.623 533.983 213.55 536.654 216.532C539.746 219.979 542.962 223.745 545.8 226.759C547.674 228.749 549.6 230.516 551.578 232.06C554.094 234.028 556.934 235.621 560.064 236.233C562.041 236.62 564.177 236.522 566.288 236.06C568.483 235.579 570.586 234.844 572.598 233.855C574.077 233.128 575.373 232.232 576.485 231.165C579.858 227.931 580.42 223.49 579.027 219.145C578.441 217.313 577.277 214.946 575.576 213.959C573.948 213.015 571.87 212.654 570.013 213.179C568.677 213.556 567.962 214.346 567.754 215.719C567.723 215.926 567.716 216.448 567.733 217.285C567.761 218.712 567.398 220.013 566.437 220.99C564.039 223.424 560.066 222.806 558.627 219.67C558.373 219.115 558.225 218.354 558.182 217.388C557.911 211.199 561.131 205.948 567.169 204.099C573.294 202.222 580.776 204.312 584.626 209.528C588.467 214.728 590.133 221.472 588.802 227.844C586.659 238.092 577.08 243.645 567.574 245.511C562.116 246.582 556.839 245.866 551.742 243.362C545.95 240.519 541.297 235.952 537.043 231.294C535.988 230.14 533.425 227.253 529.354 222.635C528.03 221.135 526.484 219.538 524.716 217.845C521.111 214.393 516.449 210.951 511.277 210.876C510.015 210.859 508.891 210.944 507.906 211.133C503.903 211.897 500.379 214.075 497.057 216.34Z" fill="#FFD700"/>
<path d="M777.965 238.357C778.956 238.433 779.759 238.761 780.374 239.341C781.524 240.429 782.179 242.082 782.023 243.67C781.987 244.03 781.799 244.598 781.459 245.375C779.344 250.199 775.89 258.067 771.096 268.978C770.895 269.438 770.628 269.9 770.297 270.364C769.045 271.083 767.81 270.929 766.591 269.904C759.867 264.249 756.474 261.395 756.412 261.343C755.384 260.495 754.733 259.852 754.458 259.414C753.565 257.991 753.187 255.965 754.103 254.546C754.527 253.892 755.17 253.469 756.035 253.277C756.889 253.467 757.537 253.747 757.981 254.12C763.038 258.364 765.72 260.613 766.025 260.868C766.202 261.015 766.377 261.154 766.55 261.284C766.559 261.29 766.57 261.295 766.581 261.297C766.592 261.299 766.603 261.298 766.614 261.295C766.625 261.292 766.635 261.287 766.643 261.279C766.652 261.272 766.659 261.263 766.663 261.252L770.896 251.519C771.021 251.258 771.144 250.988 771.267 250.708C772.837 247.14 774.405 243.572 775.972 240.003C776.355 239.132 777.019 238.584 777.965 238.357Z" fill="#009600"/>
<path d="M767.917 216.836C775.639 213.839 783.791 215.808 790.477 220.274C797.077 224.685 802.153 231.234 805.41 238.491C808.049 244.374 809.464 250.495 809.653 256.855C809.727 259.319 809.486 262.002 808.932 264.903C807.938 270.082 805.739 275.016 802.16 278.863C800.054 279.647 797.966 280.442 795.896 281.248C794.924 281.628 793.725 281.968 792.299 282.27C795.74 278.197 797.764 273.05 798.573 267.738C797.761 268.127 796.763 268.561 795.579 269.036C793.064 270.044 790.538 271.047 788.001 272.047C790.556 270.689 792.758 268.93 794.604 266.77C796.03 266.468 797.229 266.127 798.201 265.747C798.415 265.664 798.629 265.582 798.843 265.499C798.876 265.118 798.905 264.737 798.927 264.355C799.262 258.449 798.445 252.629 796.474 246.897C792.656 235.794 784.62 225.324 773.295 221.038C771.71 220.439 769.974 220.004 768.089 219.733C764.789 219.259 761.547 219.53 758.363 220.546C761.551 219.307 764.736 218.071 767.917 216.836Z" fill="#009600"/>
<path d="M736.551 23.3998C736.384 23.5005 736.19 23.4701 735.969 23.3088C732.118 20.4771 728.283 17.6832 724.463 14.927L722.198 5.33733C722.193 5.31981 722.185 5.30381 722.173 5.2907L721.92 4.96875C722.157 4.98947 722.354 5.0583 722.513 5.17524C725.784 7.57765 729.56 10.3398 733.842 13.4616C734.033 13.6008 734.169 13.8027 734.226 14.0322L736.551 23.3998Z" fill="#FF8400"/>
<path d="M706.303 0.583984C706.464 0.786775 706.555 0.974023 706.576 1.14573C706.595 1.31003 706.607 1.40107 706.611 1.41883C708.201 8.01322 709.094 11.6908 709.29 12.4517C709.297 12.48 709.311 12.5063 709.33 12.5283C709.35 12.5502 709.374 12.5673 709.401 12.5781C709.429 12.5889 709.458 12.5932 709.487 12.5905C709.517 12.5878 709.545 12.5783 709.57 12.5627L716.161 8.49059C716.214 8.45814 716.264 8.41939 716.308 8.37513C716.661 8.02432 717.163 7.99989 717.538 7.62022L721.92 4.96914L722.173 5.29109C722.185 5.3042 722.193 5.3202 722.198 5.33772L724.463 14.9273C720.462 17.4289 716.54 19.8565 712.697 22.21C712.284 22.4631 712.013 22.6859 711.886 22.8783C711.93 23.2129 711.969 23.449 712.001 23.5866C712.706 26.5234 713.415 29.4587 714.127 32.3925C714.13 32.4043 714.219 32.7181 714.396 33.3339C714.594 34.0296 714.638 34.6631 714.527 35.2345L704.126 41.6313C704.113 41.639 704.099 41.6441 704.084 41.646C704.069 41.648 704.054 41.6468 704.04 41.6427C704.026 41.6385 704.013 41.6313 704.001 41.6217C703.99 41.6121 703.981 41.6002 703.975 41.5869C703.814 41.2405 703.699 40.9252 703.631 40.641C702.726 36.825 701.845 33.1785 700.988 29.7014C700.983 29.6795 700.972 29.6592 700.958 29.6422C700.943 29.6252 700.924 29.6119 700.903 29.6034C700.882 29.595 700.859 29.5916 700.837 29.5936C700.814 29.5956 700.792 29.6028 700.773 29.6148L688.32 37.2883C688.157 37.0944 688.02 36.7695 687.909 36.3136C687.298 33.7942 686.593 30.8382 685.795 27.4456C685.786 27.409 685.789 27.3709 685.803 27.3363C685.817 27.3017 685.841 27.2724 685.872 27.2524C689.826 24.7132 693.826 22.2515 697.821 19.7788C698.512 19.3502 698.33 18.9261 698.152 18.1624C697.33 14.6276 696.554 11.4051 695.822 8.49503C695.684 7.94661 695.378 7.20946 696.051 6.78981C700.359 4.09877 703.616 2.08271 705.821 0.741629C705.994 0.636533 706.155 0.583984 706.303 0.583984Z" fill="#FAF6F3"/>
<path d="M717.538 7.61979C717.163 7.99947 716.661 8.02389 716.308 8.37471C716.264 8.41896 716.214 8.45772 716.161 8.49016L709.57 12.5623C709.545 12.5779 709.517 12.5874 709.488 12.5901C709.458 12.5928 709.429 12.5885 709.402 12.5777C709.374 12.5669 709.35 12.5498 709.331 12.5278C709.311 12.5059 709.297 12.4796 709.29 12.4512C709.094 11.6904 708.202 8.01279 706.611 1.41839C706.607 1.40063 706.595 1.3096 706.576 1.14529C706.555 0.973586 706.464 0.786337 706.303 0.583546C706.426 0.536179 706.517 0.534699 706.576 0.579106C709.878 3.02444 713.182 5.44238 716.49 7.83294C716.556 7.88026 716.633 7.90947 716.713 7.91765C716.794 7.92584 716.876 7.9127 716.95 7.87957L717.538 7.61979Z" fill="#FF8400"/>
<path d="M724.463 14.9277C728.283 17.6839 732.118 20.4778 735.969 23.3095C736.19 23.4708 736.384 23.5012 736.551 23.4005C736.717 23.5708 736.66 23.7425 736.38 23.9156C732.519 26.287 728.665 28.6709 724.818 31.0673C724.596 31.2065 724.301 31.3878 723.932 31.6113L711.886 22.8788C712.013 22.6863 712.283 22.4635 712.696 22.2104C716.54 19.8569 720.462 17.4293 724.463 14.9277Z" fill="#FF8400"/>
<path d="M723.932 31.6095L726.821 43.5572C726.559 43.5794 726.261 43.4684 725.926 43.2241C722.392 40.653 718.86 38.0789 715.33 35.5018C715.107 35.339 714.839 35.2494 714.526 35.2331C714.637 34.6618 714.594 34.0282 714.395 33.3325C714.219 32.7168 714.13 32.4029 714.127 32.3911C713.414 29.4573 712.706 26.522 712.001 23.5852C711.969 23.4476 711.93 23.2115 711.886 22.877L723.932 31.6095Z" fill="#FF8400"/>
<path d="M714.526 35.2352C714.839 35.2515 715.107 35.3411 715.33 35.5039C718.86 38.081 722.392 40.6551 725.926 43.2262C726.261 43.4705 726.559 43.5815 726.821 43.5593C726.864 43.6525 726.88 43.7406 726.868 43.8235C726.857 43.899 726.806 43.9656 726.712 44.0233C723.189 46.1889 719.693 48.3463 716.225 50.4956C716.179 50.5238 716.126 50.5378 716.072 50.5358C716.018 50.5339 715.967 50.516 715.923 50.4845L705.663 43.0353C705.624 43.0076 705.579 42.9917 705.532 42.9898C705.485 42.9878 705.438 42.9998 705.398 43.0242L698.164 47.3063C698.134 47.3247 698.1 47.3339 698.065 47.3327C698.03 47.3315 697.997 47.32 697.968 47.2996L688.518 40.4432C687.62 39.8704 687.892 38.5998 687.154 37.8745L700.772 29.6155C700.792 29.6036 700.814 29.5963 700.836 29.5943C700.859 29.5923 700.882 29.5957 700.903 29.6041C700.924 29.6126 700.943 29.6259 700.957 29.6429C700.972 29.66 700.982 29.6803 700.988 29.7021C701.845 33.1792 702.726 36.8257 703.631 40.6417C703.699 40.926 703.813 41.2412 703.975 41.5876C703.981 41.601 703.99 41.6128 704.001 41.6225C704.012 41.6321 704.025 41.6392 704.04 41.6434C704.054 41.6476 704.069 41.6488 704.084 41.6468C704.099 41.6448 704.113 41.6398 704.126 41.632L714.526 35.2352Z" fill="#FF8400"/>
<path fill-rule="evenodd" clip-rule="evenodd" d="M420.19 74.2276C421.578 74.0859 422.919 74.1031 424.213 74.279C425.596 74.4647 427.176 74.94 428.952 75.7046C430.368 76.5671 431.288 77.5406 431.712 78.6253C432.05 79.4853 432.234 80.3137 432.266 81.1102C432.337 82.9206 432.238 84.9802 431.968 87.2889C431.392 92.2399 430.815 96.0001 429.595 100.669C428.17 106.111 426.799 111.316 425.656 116.758C424.562 121.976 423.489 126.348 422.089 132.736C421.065 137.409 420.06 141.864 419.073 146.098C417.753 151.751 416.406 157.472 415.035 163.26C413.896 168.05 412.937 172.066 411.673 177.783C410.887 181.331 410.141 184.6 409.436 187.59C408.997 189.442 407.79 194.305 405.813 202.18C403.201 212.58 401.683 219.672 398.336 233.92C390.107 268.931 384.871 290.97 382.63 300.037C380.918 306.974 377.325 313.047 370.656 316.195C369.145 316.908 367.181 317.243 364.763 317.199C349.673 313.61 334.536 310.007 319.352 306.391C317.515 305.955 315.759 305.633 314.322 304.845C307.808 301.283 306.383 295.309 306.603 288.365C306.65 286.911 307.116 284.312 308 280.569C310.781 268.78 314.088 255.29 317.045 242.632C318.926 234.572 320.855 226.518 322.832 218.47L323.045 218.473L332.121 181.091C332.111 181.069 332.101 181.046 332.09 181.023C332.827 177.718 333.538 174.586 334.221 171.63C341.187 141.557 346.83 117.628 351.151 99.8443C352.562 94.043 355.038 88.1978 359.377 84.1593C363.18 80.6156 367.486 79.3696 372.625 78.8822C388.01 77.4187 403.865 75.867 420.19 74.2276Z" fill="#054BC1"/>
<path d="M402.971 84.5827C403.29 84.8991 403.485 85.2897 403.556 85.7546C403.851 87.6571 403.187 88.9898 401.563 89.7527C401.189 89.9273 400.496 90.054 399.485 90.1328C399.102 90.1617 387.485 90.9827 384.544 91.1744C384.105 91.202 383.624 91.202 383.1 91.1744C381.48 91.0897 380.342 89.8312 380.589 88.1847C380.787 86.8553 381.695 85.7622 382.999 85.323C383.181 85.2613 383.82 85.1641 384.917 85.0315C386.745 84.8083 398.239 83.9328 399.493 83.8264C400.884 83.7082 402.007 83.6216 402.971 84.5827Z" fill="#002E77"/>
<path d="M319.204 271.011C319.005 269.679 319.161 267.843 319.67 265.502C330.313 216.619 345.512 156.786 357.271 108.16C357.644 106.623 358.141 105.252 358.764 104.047C360.737 100.228 365.019 98.4836 369.117 98.2197C377.089 97.7065 381.878 97.4793 388.6 97.0321C398.271 96.3871 405.13 95.9448 409.175 95.7053C415.291 95.3425 418.937 98.8464 417.852 105.074C417.485 107.175 416.935 109.769 416.202 112.855C404.766 161.075 390.33 220.513 378.899 268.731C377.752 273.58 377.447 278.766 373.592 282.179C370.978 284.491 368.556 284.825 365.01 284.392C363.549 284.217 361.726 283.926 359.541 283.52C348.897 281.543 337.742 279.655 326.076 277.854C322.083 277.238 319.792 274.957 319.204 271.011Z" fill="#0091FF"/>
<path d="M364.896 317.233C367.314 317.277 369.279 316.942 370.791 316.229C377.462 313.08 381.056 307.007 382.769 300.069C385.011 291.001 390.248 268.96 398.481 233.946C401.829 219.696 403.347 212.603 405.96 202.202C407.938 194.326 409.146 189.463 409.584 187.611C410.29 184.62 411.036 181.35 411.823 177.803C413.087 172.085 414.046 168.068 415.185 163.278C416.558 157.489 417.904 151.768 419.225 146.114C420.212 141.879 421.218 137.425 422.242 132.75C423.642 126.362 424.716 121.989 425.811 116.77C426.954 111.327 428.325 106.123 429.751 100.68C430.971 96.0106 431.548 92.2502 432.125 87.2985C432.395 84.9894 432.494 82.9296 432.423 81.119C432.391 80.3225 432.206 79.4941 431.868 78.634C431.444 77.5491 430.524 76.5754 429.108 75.7129C431.565 76.4386 434.089 77.3708 436.679 78.5094C441.512 80.6352 445.415 83.8203 446.187 89.362C446.694 93.0198 446.066 96.6484 445.209 100.552C444.918 101.879 437.358 134.819 422.529 199.372C410.748 250.65 403.114 283.812 399.628 298.856C398.579 303.381 397.725 306.377 397.066 307.843C394.004 314.653 388.521 319.747 380.655 319.931C379.379 319.962 377.512 319.768 375.054 319.348C371.692 318.771 368.306 318.066 364.896 317.233ZM424.605 133.095C423.941 136.166 423.606 137.719 423.598 137.753C423.032 140.227 423.804 143.53 426.575 144.123C429.347 144.717 431.412 142.027 431.919 139.542C431.927 139.508 432.261 137.954 432.923 134.88C433.587 131.808 433.924 130.256 433.933 130.221C434.499 127.747 433.724 124.449 430.953 123.851C428.185 123.258 426.116 125.948 425.612 128.433C425.605 128.467 425.269 130.021 424.605 133.095ZM418.232 161.177C417.774 163.166 417.32 165.161 416.869 167.163C416.299 169.688 416.266 173.195 419.548 173.947C422.83 174.698 424.337 171.528 424.929 169.01C425.397 167.011 425.86 165.017 426.318 163.028C426.776 161.037 427.231 159.041 427.682 157.039C428.251 154.514 428.284 151.01 425.002 150.259C421.72 149.507 420.213 152.674 419.622 155.196C419.154 157.192 418.691 159.186 418.232 161.177ZM411.62 187.871C411.01 190.403 409.617 195.231 412.495 197.217C413.22 197.715 413.974 197.92 414.755 197.829C418.618 197.375 419.313 192.83 420.022 189.872C420.732 186.918 422.172 182.553 418.931 180.401C418.276 179.969 417.513 179.812 416.641 179.932C413.171 180.401 412.227 185.338 411.62 187.871Z" fill="#01092A"/>
<path d="M430.953 123.851C433.724 124.448 434.5 127.747 433.934 130.221C433.924 130.255 433.587 131.808 432.923 134.879C432.261 137.953 431.927 139.507 431.92 139.542C431.412 142.027 429.347 144.717 426.576 144.123C423.804 143.529 423.033 140.227 423.599 137.753C423.606 137.719 423.942 136.166 424.606 133.094C425.27 130.021 425.605 128.467 425.613 128.432C426.116 125.947 428.185 123.257 430.953 123.851Z" fill="#002E77"/>
<path d="M425.003 150.257C428.285 151.008 428.252 154.512 427.682 157.038C427.231 159.039 426.777 161.035 426.318 163.026C425.86 165.015 425.397 167.009 424.929 169.008C424.337 171.526 422.83 174.696 419.548 173.945C416.266 173.194 416.299 169.686 416.869 167.161C417.32 165.16 417.774 163.165 418.233 161.176C418.691 159.184 419.154 157.19 419.622 155.194C420.214 152.672 421.72 149.506 425.003 150.257Z" fill="#002E77"/>
<path d="M420.022 189.869C419.312 192.827 418.618 197.372 414.755 197.827C413.973 197.917 413.22 197.713 412.495 197.214C409.617 195.228 411.01 190.401 411.62 187.868C412.226 185.336 413.171 180.399 416.64 179.93C417.513 179.81 418.276 179.966 418.93 180.399C422.172 182.55 420.731 186.915 420.022 189.869Z" fill="#002E77"/>
<path d="M341.88 152.681C343.162 155.464 344.863 158.406 346.985 161.506C348.463 164.04 350.193 166.651 352.175 169.339C353.197 170.728 354.108 171.648 355.836 170.952C356.507 170.68 357.251 170.228 358.067 169.596C359.845 168.222 361.312 166.937 362.466 165.74C367.621 160.391 370.431 157.482 370.894 157.013C372.469 155.425 374.004 154.234 375.499 153.439C379.152 151.497 383.816 152.948 385.852 156.577C388.528 161.342 386.418 165.78 383.504 169.863C381.232 173.04 378.657 176.333 375.778 179.744C374.788 180.917 373.858 181.92 372.989 182.754C369.97 182.959 367.237 182.481 364.789 181.32C363.275 180.6 362.03 179.818 361.055 178.975C359.462 177.599 358.625 176.845 358.544 176.713C358.54 176.708 358.535 176.704 358.528 176.702C358.521 176.701 358.514 176.702 358.508 176.705C358.501 176.708 358.495 176.713 358.49 176.72C358.485 176.727 358.483 176.735 358.482 176.743C358.479 176.767 358.482 176.783 358.489 176.79C361.4 180.415 365.34 184.542 370.405 184.106C370.596 184.089 370.861 184.007 371.199 183.86C371.525 183.719 371.801 183.677 372.029 183.736C369.295 186.763 365.814 189.604 361.999 190.381C361.22 190.537 359.88 190.601 357.978 190.571C351.841 190.469 345.782 190.365 339.804 190.26L332.618 190.132C326.03 190.293 319.445 190.34 312.863 190.274C306.02 190.201 299.176 188.878 293.02 185.92C285.03 182.086 278.308 176.156 273.074 168.885C267.823 161.588 263.285 153.652 259.46 145.075C257.74 141.217 255.912 136.933 253.977 132.222C252.988 129.821 254.344 127.996 256.726 127.556C257.659 127.382 258.578 127.268 259.482 127.211C266.818 126.75 287.569 125.436 321.736 123.271C323.921 123.132 325.415 123.166 326.216 123.374C328.906 124.07 330.579 125.984 331.825 128.425C332.901 130.525 333.861 133.072 334.813 136.118C336.266 140.773 338.15 145.288 340.465 149.664C340.58 149.879 340.772 150.405 341.039 151.24C341.222 151.824 341.503 152.304 341.88 152.681ZM322.162 149.507C322.37 148.776 322.237 148.019 321.761 147.234C321.052 146.061 318.024 146.322 316.748 146.424C314.793 146.582 312.889 147.253 310.993 147.865C308.912 148.535 306.803 148.664 304.873 148.074C300.702 146.798 297.552 145.468 293.612 147.209C291.16 148.29 289.705 149.016 286.864 148.253C285.036 147.767 283.193 147.255 281.336 146.718C280.432 146.457 278.23 146.142 277.973 147.289C277.411 149.826 279.204 150.174 281.417 150.812C283.999 151.552 285.968 152.043 287.323 152.285C290.462 152.849 292.877 151.918 295.762 150.65C295.923 150.58 296.092 150.53 296.265 150.504C297.515 150.303 298.637 150.348 299.632 150.639C303.903 151.893 307.034 153 311.018 151.896C313.301 151.266 315.307 150.427 317.564 150.324C318.711 150.273 319.93 150.24 321.221 150.225C321.434 150.223 321.641 150.152 321.811 150.022C321.98 149.893 322.103 149.712 322.162 149.507ZM288.724 165.483C287.334 167.129 288.441 168.555 290.201 168.987C294.707 170.087 299.117 171.861 303.326 169.804C304.436 169.262 305.21 168.97 305.649 168.928C306.974 168.804 308.215 168.914 309.372 169.258C312.33 170.145 315.065 171.245 318.413 170.937C320.468 170.75 322.57 169.698 324.547 169.167C326.345 168.679 328.697 169.218 329.586 169.222C330.505 169.225 331.729 169.291 331.957 168.269C332.332 166.579 331.6 165.622 329.847 165.326C328.139 165.032 326.59 164.916 325.198 164.977C323.496 165.054 322.092 165.685 320.041 166.498C318.223 167.219 316.234 167.266 314.073 166.638C310.213 165.513 306.759 163.801 302.771 165.666C301.401 166.307 300.6 166.65 300.367 166.696C298.368 167.103 296.776 166.678 294.328 166.051C292.366 165.549 290.697 164.944 289.098 165.263C288.953 165.292 288.821 165.369 288.724 165.483Z" fill="#F8F6EE"/>
<path d="M353.006 170.349C352.725 170.063 352.454 169.718 352.175 169.339C352.448 169.659 352.725 169.997 353.006 170.349C353.756 171.11 354.58 171.457 355.836 170.951C356.507 170.68 357.251 170.228 358.066 169.595C359.845 168.222 361.312 166.937 362.466 165.739C367.621 160.391 370.43 157.482 370.893 157.013C372.469 155.424 374.004 154.233 375.499 153.439C379.152 151.497 383.816 152.948 385.852 156.576C388.528 161.341 386.418 165.78 383.504 169.863C381.232 173.039 378.657 176.333 375.778 179.744C374.788 180.917 373.858 181.92 372.988 182.753C372.239 183.52 371.53 184.005 370.405 184.106C362.898 184.752 357.392 175.828 353.006 170.349Z" fill="#D9D9D9"/>
<path d="M322.163 149.504C322.105 149.71 321.981 149.89 321.812 150.02C321.642 150.149 321.436 150.22 321.222 150.223C319.931 150.237 318.712 150.27 317.565 150.322C315.309 150.424 313.302 151.263 311.02 151.894C307.035 152.997 303.904 151.89 299.633 150.637C298.638 150.346 297.516 150.301 296.267 150.501C296.093 150.528 295.924 150.577 295.763 150.648C292.878 151.916 290.463 152.847 287.324 152.282C285.969 152.04 284.001 151.549 281.418 150.809C279.206 150.171 277.412 149.823 277.974 147.287C278.232 146.14 280.433 146.455 281.337 146.715C283.195 147.253 285.037 147.765 286.865 148.251C289.706 149.013 291.162 148.288 293.613 147.207C297.553 145.466 300.703 146.796 304.874 148.071C306.804 148.661 308.914 148.533 310.994 147.863C312.89 147.251 314.794 146.58 316.749 146.422C318.025 146.32 321.053 146.059 321.763 147.232C322.238 148.016 322.372 148.774 322.163 149.504Z" fill="#969492"/>
<path d="M290.201 168.987C288.44 168.554 287.334 167.129 288.723 165.483C288.821 165.369 288.953 165.292 289.098 165.263C290.697 164.944 292.366 165.549 294.328 166.051C296.776 166.678 298.367 167.103 300.367 166.696C300.6 166.65 301.401 166.306 302.771 165.666C306.758 163.801 310.213 165.512 314.072 166.637C316.233 167.265 318.223 167.219 320.041 166.498C322.092 165.685 323.496 165.054 325.198 164.977C326.589 164.916 328.139 165.032 329.847 165.325C331.6 165.622 332.332 166.579 331.957 168.268C331.729 169.291 330.505 169.225 329.586 169.221C328.697 169.217 326.344 168.679 324.547 169.166C322.57 169.698 320.467 170.749 318.413 170.936C315.065 171.244 312.33 170.145 309.372 169.258C308.215 168.913 306.974 168.803 305.648 168.928C305.21 168.969 304.435 169.261 303.326 169.804C299.117 171.86 294.707 170.086 290.201 168.987Z" fill="#969492"/>
<path d="M0.670304 174.156C0.793266 173.586 1.20314 173.141 1.89993 172.819C6.61349 170.65 10.9281 168.762 14.8438 167.154C21.3635 164.481 27.8231 162.973 34.2226 162.629C37.1218 162.474 40.2642 162.71 43.6498 163.337C46.4779 163.86 49.1011 164.808 52.2079 165.793C57.5035 167.473 63.1434 167.996 68.234 167.326C73.173 166.68 78.1653 164.661 83.2969 161.971C89.7046 158.609 95.5795 155.223 100.922 151.814C103.057 150.449 104.979 151.573 107.057 152.959C112.623 156.662 120.762 161.91 131.474 168.703C134.535 170.645 138.478 172.893 142.196 174.638C147.319 177.047 151.941 179.209 156.062 181.125C157.579 181.831 158.065 183.113 157.521 184.971C157.311 185.69 156.591 186.776 155.361 188.229C147.848 197.131 137.495 203.614 126.584 207.443C120.392 209.615 114.189 210.478 107.975 210.031C102.013 209.603 97.0947 209.036 93.22 208.33C89.941 207.734 87.7618 207.366 86.6825 207.227C81.8187 206.6 77.571 206.818 73.9395 207.881C70.2725 208.952 66.8336 210.534 63.6229 212.626C61.5872 213.956 59.7155 215.148 58.0077 216.203C54.6672 218.271 52.4703 216.301 49.9085 214.29C34.3579 202.066 18.6556 189.853 2.80165 177.651C1.30561 176.498 0.276824 175.975 0.670304 174.156Z" fill="#F8F6EE"/>
<path d="M110.715 194.032C111.428 195.505 110.439 197.107 108.737 196.334C108.13 196.055 107.522 195.541 106.915 194.791C106.018 193.688 103.272 193.277 100.784 192.595C98.2112 191.892 96.6676 190.459 95.3592 188.018C94.8667 187.098 93.9956 184.88 92.4005 183.817C92.0085 183.553 91.3383 183.366 90.3901 183.256C87.8835 182.963 85.6084 182.446 83.7377 180.548C82.2724 179.062 81.1343 177.724 80.3233 176.535C80.0366 176.117 80.0096 175.688 80.2424 175.248C80.926 173.954 82.6093 174.409 83.44 175.208C83.7413 175.498 84.7459 176.561 86.4538 178.396C87.6299 179.665 90.3092 179.892 91.5331 180.112C94.0177 180.552 95.7451 181.563 97.0278 183.799C98.4465 186.273 99.3175 188.875 102.118 189.454C105.29 190.11 109.256 191.03 110.715 194.032Z" fill="#969492"/>
<path d="M60.3189 195.658C59.8093 196.56 58.9223 196.765 57.658 196.274C55.8301 195.565 54.2301 194.843 52.858 194.108C50.8696 193.037 50.1749 190.794 48.9253 188.87C47.2016 186.217 43.7761 185.769 41.31 184.82C38.5718 183.768 36.9142 182.02 34.7568 179.689C34.2814 179.176 34.0291 178.74 33.9997 178.38C33.8159 176.236 36.113 176.647 37.2266 177.534C37.3491 177.632 38.1835 178.446 39.7296 179.978C41.4901 181.727 43.6512 182.163 46.9149 183.27C49.0981 184.01 50.8365 185.319 52.0273 187.331C52.8396 188.705 53.8025 190.717 55.5373 191.513C56.6644 192.028 57.6274 192.446 58.4261 192.766C59.503 193.195 61.0724 194.324 60.3189 195.658Z" fill="#969492"/>
<path d="M84.6933 196.972C83.6752 197.335 82.4329 196.063 81.9441 195.334C81.7032 194.975 81.3496 194.703 80.9371 194.561C78.4489 193.71 76.3245 193.15 74.7919 191.486C74.6966 191.381 74.6116 191.267 74.5383 191.145C73.3217 189.056 72.4838 187.241 70.7858 185.991C70.3986 185.706 69.6219 185.361 68.4556 184.958C66.9315 184.43 65.9147 184.051 65.405 183.822C63.6531 183.035 62.1058 181.772 60.7631 180.032C60.1823 179.277 59.6568 178.5 60.0464 177.679C60.7667 176.161 62.4721 176.916 63.3689 177.855C64.5499 179.086 65.1625 179.722 65.2066 179.761C65.3828 179.917 65.5621 180.07 65.7432 180.219C66.5125 180.842 68.0476 181.514 70.3484 182.235C71.7524 182.674 73.1086 183.527 74.417 184.793C75.5417 185.878 76.2878 187.527 77.2103 188.836C78.4415 190.577 81.0326 190.95 82.4146 191.548C84.0317 192.247 85.0902 193.323 85.5901 194.777C85.9748 195.894 85.6758 196.625 84.6933 196.972Z" fill="#969492"/>
<path d="M203.264 193.48C207.87 190.765 210.199 189.392 210.252 189.361C217.499 184.994 224.657 181.129 231.724 177.764C232.39 177.448 233.578 176.961 235.287 176.302C238.625 175.015 242.129 174.394 245.799 174.438C251.667 174.507 256.122 176.862 260.433 180.591C262.65 182.511 265.172 184.897 267.997 187.748C275.596 195.409 284.827 204.676 295.69 215.547C297.075 216.93 298.594 218.27 297.67 220.427C297.263 221.374 296.485 221.877 295.337 221.936C292.457 222.085 290.398 222.218 289.16 222.335C287.477 222.495 285.475 222.956 283.157 223.719C279.344 224.977 275.608 226.703 271.951 228.898C260.54 235.74 249.454 243.915 238.837 252.379C233.853 256.356 228.473 260.084 222.697 263.564C216.712 267.17 210.882 270.073 204.295 272C195.397 274.604 185.853 274.66 177.053 271.771C175.054 271.114 172.929 270.133 170.677 268.827C161.716 263.627 155.467 255.137 150.359 246.342C145.967 238.774 142.52 231.243 138.825 222.2C137.548 219.081 134.849 214.519 141.038 214.644C145.992 214.742 150.132 214.764 154.07 214.509C159.346 214.167 164.215 213.191 168.675 211.579C174.424 209.501 180.194 206.818 185.985 203.529C190.127 201.177 195.886 197.827 203.264 193.48Z" fill="#F8F6EE"/>
<path d="M233.205 235.356C233.035 235.425 232.848 235.437 232.671 235.391C232.494 235.345 232.336 235.243 232.222 235.1C231.53 234.235 230.863 233.429 230.222 232.682C228.96 231.212 227.332 230.3 225.699 229.091C222.847 226.983 221.94 224.283 220.53 220.735C220.2 219.909 219.638 219.127 218.842 218.389C218.732 218.286 218.609 218.198 218.477 218.127C216.094 216.848 214.189 215.709 212.911 213.29C212.358 212.247 211.649 210.658 210.785 208.522C210.046 206.69 209.333 205.294 211.345 204.333C212.256 203.901 213.207 205.555 213.509 206.303C214.127 207.842 214.755 209.357 215.393 210.849C216.38 213.171 217.639 213.77 219.666 214.855C222.925 216.596 223.691 219.427 225.034 222.919C225.655 224.535 226.857 225.892 228.41 226.943C229.827 227.9 231.286 228.832 232.426 230.069C233.17 230.876 234.947 232.785 234.529 233.884C234.25 234.62 233.809 235.11 233.205 235.356Z" fill="#969492"/>
<path d="M256.993 218.327C256.997 218.604 256.864 218.841 256.595 219.038C255.334 219.959 254.177 219.484 252.708 218.871C248.829 217.245 246.443 215.645 245.207 211.41C244.314 208.356 242.501 207.011 239.449 206.001C235.64 204.74 232.676 203.568 231.254 199.477C230.557 197.477 229.838 195.961 230.16 194.333C230.349 193.377 231.661 193.481 232.323 193.773C232.979 194.062 233.301 194.968 233.559 195.597C233.994 196.647 234.31 198.26 235.038 199.367C236.728 201.942 239.373 202.25 242.066 203.291C244.429 204.203 246.221 205.718 247.442 207.838C248.111 208.998 248.379 210.306 248.899 211.592C250.015 214.356 252.793 215.129 255.315 216.154C256.4 216.598 256.974 217.186 256.993 218.327Z" fill="#969492"/>
<path d="M192.4 214.267C193.828 214.075 194.383 215.031 194.777 216.351C195.676 219.342 195.442 222.351 199.012 223.492C203.076 224.791 207.534 226.177 207.661 231.322C207.69 232.504 207.736 233.577 207.799 234.541C207.957 236.962 209.212 238.01 211.406 238.887C213.498 239.719 215 240.34 215.912 240.748C216.864 241.176 217.757 242.141 217.495 243.223C217.211 244.393 215.909 244.789 214.84 244.257C213.23 243.461 211.876 242.843 210.779 242.405C208.744 241.592 207.422 240.923 206.812 240.399C203.912 237.893 204.381 234.714 204.123 231.419C203.889 228.473 200.197 227.413 197.668 226.63C195.19 225.866 193.232 224.511 192.535 221.845C192.142 220.337 191.769 218.513 191.416 216.37C191.302 215.675 191.435 214.396 192.4 214.267Z" fill="#969492"/>
<path d="M193.242 254.052C192.372 253.792 190.57 253.145 187.838 252.112C183.342 250.411 183.543 246.729 183.515 242.695C183.502 241.229 183.193 240.544 182.124 239.623C180.472 238.195 178.199 237.67 176.458 236.708C174.049 235.375 172.583 233.32 172.06 230.545C171.726 228.765 171.467 227.357 171.284 226.319C171.187 225.776 171.226 225.335 171.401 224.995C171.905 224.02 173.258 223.926 173.952 224.734C174.765 225.684 175.055 227.784 175.314 229.039C175.581 230.351 175.858 231.221 176.146 231.649C176.899 232.766 177.769 233.56 178.757 234.032C180.188 234.717 182.843 235.617 184.637 236.997C187.488 239.192 187.05 242.468 187.119 245.82C187.153 247.495 187.965 248.614 189.556 249.178C190.89 249.653 192.315 250.046 193.652 250.625C195.065 251.238 195.383 253.892 193.611 254.087C193.486 254.099 193.361 254.087 193.242 254.052Z" fill="#969492"/>
</svg>
