<svg width="200" height="200" viewBox="0 0 200 200" fill="none" xmlns="http://www.w3.org/2000/svg">
<ellipse cx="98.2999" cy="171.615" rx="54.1055" ry="6.6737" fill="#EEEBE4"/>
<path d="M159.931 90.8515C150.876 106.535 132.829 113.792 116.062 109.869C115.231 109.674 114.523 110.9 115.107 111.523C126.888 124.082 129.627 143.339 120.572 159.023L112.364 173.24C110.698 176.126 107.008 177.114 104.122 175.448L45.0883 141.365C42.2023 139.699 41.2135 136.009 42.8797 133.123L51.0875 118.906C60.1425 103.223 78.1888 95.9662 94.9564 99.889C95.7875 100.083 96.4952 98.8576 95.9113 98.2351C84.1301 85.6753 81.3911 66.4186 90.4462 50.7347L98.654 36.5185C100.32 33.6325 104.01 32.6437 106.896 34.3099L165.93 68.3928C168.816 70.0591 169.805 73.7493 168.138 76.6353L159.931 90.8515Z" fill="#39BEFF"/>
<path d="M90.6497 74.4204C91.3405 85.4219 96.0226 96.5001 107.406 102.728C118.79 108.956 129.036 108.841 141.561 100.596V100.596C135.289 97.1649 130.996 91.23 126.123 85.9981C117.49 76.729 111.286 90.7439 101.706 78.1988C99.0857 74.768 94.6886 72.8965 90.6497 74.4204V74.4204Z" fill="#054BC1"/>
<path d="M94.318 78.7062C96.3565 81.0863 99.5387 82.1531 102.6 81.4832L102.751 81.4502C106.596 80.6087 110.505 82.578 112.117 86.1684C113.908 90.1554 118.48 92.0756 122.582 90.5647L125.682 89.423C129.654 87.9595 134.113 89.4128 136.459 92.9366L141.56 100.598C131.251 107.384 122.485 108.661 113.358 105.428C109.901 104.204 104.915 107.086 99.776 117.191C93.0605 130.396 103.868 132.064 106.378 144.379C106.378 157.332 112.05 161.316 109.984 166.015C106.273 174.455 39.7088 136.216 51.4457 131.109C67.3383 122.97 74.7664 131.24 82.0905 128.907C88.7184 126.797 106.944 104.746 100.867 97.9959C94.1636 91.657 91.1884 83.016 90.6487 74.4219L94.318 78.7062Z" fill="#006CE0"/>
<path d="M94.6668 99.8225C94.4319 99.9531 94.1888 100.053 93.9412 100.094C70.2734 104.057 68.0604 117.705 58.8271 133.698L52.0728 145.397L45.0878 141.364C42.2021 139.698 41.2132 136.008 42.8794 133.122L51.0872 118.905C60.0903 103.312 77.9813 96.0499 94.6668 99.8225Z" fill="white" fill-opacity="0.5"/>
<path d="M107.236 47.9179C97.9057 64.0781 89.4809 74.1376 95.9491 98.0407C95.9776 98.146 95.9983 98.2527 96.0056 98.3564C95.9791 98.3137 95.9474 98.2728 95.9112 98.2342C84.1301 85.6744 81.3908 66.4181 90.4459 50.7342L98.6537 36.5178C100.32 33.632 104.01 32.6432 106.896 34.3093L113.044 37.8586L107.236 47.9179Z" fill="white" fill-opacity="0.5"/>
</svg>
